<svg version="1.1" xmlns="http://www.w3.org/2000/svg" xmlns:xlink="http://www.w3.org/1999/xlink" viewBox="-123069.03 -64418.33 99177 27674">
  <style>.i0 { stroke:#000000; } .wa { stroke:#cc6600; } .dr { stroke:#ff0000; } .stair { stroke:#00994c; } .toilet { stroke:#00ff00; } .defpoints { stroke:#000000; } .gros { stroke:#ff00ff; } .rm { stroke:#00ffff; } .wm { stroke:#ff7f00; } .pub_hatch { stroke:#808080; } .pub_text { stroke:#000000; } .wall { stroke:#000000; } .dim_symb { stroke:#00ff00; } .wn { stroke:#ff7f00; } .pub_dim { stroke:#000000; } .handrail { stroke:#000000; } .axis { stroke:#00ff00; } .rm-asset { stroke:#0000ff; } .rmtc-asset { stroke:#0000ff; } .rmtc { stroke:#00ffff; } .rm-assettxt { stroke:#0000ff; } .rmtc-assettxt { stroke:#0000ff; }</style>
  <view id="defaultView" viewBox="-123069.03 -64418.33 99177 27674" />
  <defs />
  <g id="viewer">
    <g id="mirror" transform="scale(1, -1)" stroke-width="0.09%">
      <g id="background" fill="none">
        <g id="layer-wm" class="wm">
          <path d="M-107942.07,43687.2l380,0" />
          <path d="M-107562.07,41687.2l-380,0" />
          <path d="M-107688.74,43687.2l0,-2000" />
          <path d="M-107815.41,43687.2l0,-2000" />
          <path d="M-107562.07,41687.2l0,2000" />
          <path d="M-77219.57,43562.25l0,380" />
          <path d="M-79219.57,43942.25l0,-380" />
          <path d="M-77219.57,43815.58l-2000,0" />
          <path d="M-77219.57,43688.91l-2000,0" />
          <path d="M-79219.57,43562.25l2000,0" />
          <path d="M-79219.57,43942.25l2000,0" />
          <path d="M-94187.07,59812.25l0,-380" />
          <path d="M-92187.07,59432.25l0,380" />
          <path d="M-94187.07,59558.91l2000,0" />
          <path d="M-94187.07,59685.58l2000,0" />
          <path d="M-92187.07,59812.25l-2000,0" />
          <path d="M-92187.07,59432.25l-2000,0" />
          <path d="M-91187.07,59812.25l0,-380" />
          <path d="M-89187.07,59432.25l0,380" />
          <path d="M-91187.07,59558.91l2000,0" />
          <path d="M-91187.07,59685.58l2000,0" />
          <path d="M-89187.07,59812.25l-2000,0" />
          <path d="M-89187.07,59432.25l-2000,0" />
          <path d="M-88187.07,59812.25l0,-380" />
          <path d="M-86187.07,59432.25l0,380" />
          <path d="M-88187.07,59558.91l2000,0" />
          <path d="M-88187.07,59685.58l2000,0" />
          <path d="M-86187.07,59812.25l-2000,0" />
          <path d="M-86187.07,59432.25l-2000,0" />
          <path d="M-85187.07,59812.25l0,-380" />
          <path d="M-83187.07,59432.25l0,380" />
          <path d="M-85187.07,59558.91l2000,0" />
          <path d="M-85187.07,59685.58l2000,0" />
          <path d="M-83187.07,59812.25l-2000,0" />
          <path d="M-83187.07,59432.25l-2000,0" />
          <path d="M-106684.57,59812.25l0,-380" />
          <path d="M-104684.57,59432.25l0,380" />
          <path d="M-106684.57,59558.91l2000,0" />
          <path d="M-106684.57,59685.58l2000,0" />
          <path d="M-104684.57,59812.25l-2000,0" />
          <path d="M-103187.07,59812.25l0,-380" />
          <path d="M-101187.07,59432.25l0,380" />
          <path d="M-103187.07,59558.91l2000,0" />
          <path d="M-103187.07,59685.58l2000,0" />
          <path d="M-101187.07,59812.25l-2000,0" />
          <path d="M-101187.07,59432.25l-2000,0" />
          <path d="M-100187.07,59812.25l0,-380" />
          <path d="M-98187.07,59432.25l0,380" />
          <path d="M-100187.07,59558.91l2000,0" />
          <path d="M-100187.07,59685.58l2000,0" />
          <path d="M-98187.07,59812.25l-2000,0" />
          <path d="M-98187.07,59432.25l-2000,0" />
          <path d="M-97187.07,59812.25l0,-380" />
          <path d="M-95187.07,59432.25l0,380" />
          <path d="M-97187.07,59558.91l2000,0" />
          <path d="M-97187.07,59685.58l2000,0" />
          <path d="M-95187.07,59812.25l-2000,0" />
          <path d="M-95187.07,59432.25l-2000,0" />
          <path d="M-116057.07,40562.25l0,380" />
          <path d="M-118057.07,40942.25l0,-380" />
          <path d="M-116057.07,40815.58l-2000,0" />
          <path d="M-116057.07,40688.91l-2000,0" />
          <path d="M-118057.07,40562.25l2000,0" />
          <path d="M-118057.07,40942.25l2000,0" />
          <path d="M-111062.07,61812.25l0,-380" />
          <path d="M-109062.07,61432.25l0,380" />
          <path d="M-111062.07,61558.91l2000,0" />
          <path d="M-111062.07,61685.58l2000,0" />
          <path d="M-109062.07,61812.25l-2000,0" />
          <path d="M-109062.07,61432.25l-2000,0" />
          <path d="M-119877.07,57507.25l250,0" />
          <path d="M-119627.07,59507.25l-250,0" />
          <path d="M-119710.41,57507.25l0,2000" />
          <path d="M-119793.74,57507.25l0,2000" />
          <path d="M-119877.07,59507.25l0,-2000" />
          <path d="M-119627.07,59507.25l0,-2000" />
          <path d="M-119877.07,50187.25l250,0" />
          <path d="M-119627.07,52187.25l-250,0" />
          <path d="M-119710.41,50187.25l0,2000" />
          <path d="M-119793.74,50187.25l0,2000" />
          <path d="M-119877.07,52187.25l0,-2000" />
          <path d="M-119627.07,52187.25l0,-2000" />
          <path d="M-119627.07,46437.25l-250,0" />
          <path d="M-119877.07,48437.25l250,0" />
          <path d="M-119793.74,46437.25l0,2000" />
          <path d="M-119710.41,46437.25l0,2000" />
          <path d="M-119627.07,48437.25l0,-2000" />
          <path d="M-119877.07,48437.25l0,-2000" />
          <path d="M-109129.57,40942.25l0,-380" />
          <path d="M-111129.57,40562.25l0,380" />
          <path d="M-109129.57,40688.91l-2000,0" />
          <path d="M-109129.57,40815.58l-2000,0" />
          <path d="M-111129.57,40562.25l2000,0" />
          <path d="M-119627.07,42749.97l-250,0" />
          <path d="M-119877.07,44749.97l250,0" />
          <path d="M-119793.74,42749.97l0,2000" />
          <path d="M-119710.41,42749.97l0,2000" />
          <path d="M-119627.07,44749.97l0,-2000" />
          <path d="M-119877.07,44749.97l0,-2000" />
          <path d="M-119877.07,53937.25l250,0" />
          <path d="M-119627.07,55937.25l-250,0" />
          <path d="M-119710.41,53937.25l0,2000" />
          <path d="M-119793.74,53937.25l0,2000" />
          <path d="M-119877.07,55937.25l0,-2000" />
          <path d="M-119627.07,55937.25l0,-2000" />
          <path d="M-118057.07,61432.25l0,380" />
          <path d="M-116057.07,61812.25l0,-380" />
          <path d="M-118057.07,61685.58l2000,0" />
          <path d="M-118057.07,61558.91l2000,0" />
          <path d="M-116057.07,61432.25l-2000,0" />
          <path d="M-116057.07,61812.25l-2000,0" />
          <path d="M-114818.1,61812.25l0,-380" />
          <path d="M-112818.1,61432.25l0,380" />
          <path d="M-114818.1,61558.91l2000,0" />
          <path d="M-114818.1,61685.58l2000,0" />
          <path d="M-112818.1,61812.25l-2000,0" />
          <path d="M-112818.1,61432.25l-2000,0" />
          <path d="M-105187.07,43942.25l0,-380" />
          <path d="M-107187.07,43562.25l0,380" />
          <path d="M-105187.07,43688.91l-2000,0" />
          <path d="M-105187.07,43815.58l-2000,0" />
          <path d="M-107187.07,43942.25l2000,0" />
          <path d="M-107187.07,43562.25l2000,0" />
          <path d="M-102187.07,43942.25l0,-380" />
          <path d="M-104187.07,43562.25l0,380" />
          <path d="M-102187.07,43688.91l-2000,0" />
          <path d="M-102187.07,43815.58l-2000,0" />
          <path d="M-104187.07,43942.25l2000,0" />
          <path d="M-104187.07,43562.25l2000,0" />
          <path d="M-99187.07,43562.25l0,380" />
          <path d="M-101187.07,43942.25l0,-380" />
          <path d="M-99187.07,43815.58l-2000,0" />
          <path d="M-99187.07,43688.91l-2000,0" />
          <path d="M-101187.07,43562.25l2000,0" />
          <path d="M-101187.07,43942.25l2000,0" />
          <path d="M-96187.07,43942.25l0,-380" />
          <path d="M-98187.07,43562.25l0,380" />
          <path d="M-96187.07,43688.91l-2000,0" />
          <path d="M-96187.07,43815.58l-2000,0" />
          <path d="M-98187.07,43942.25l2000,0" />
          <path d="M-98187.07,43562.25l2000,0" />
          <path d="M-93187.07,43942.25l0,-380" />
          <path d="M-95187.07,43562.25l0,380" />
          <path d="M-93187.07,43688.91l-2000,0" />
          <path d="M-93187.07,43815.58l-2000,0" />
          <path d="M-95187.07,43942.25l2000,0" />
          <path d="M-95187.07,43562.25l2000,0" />
          <path d="M-90187.07,43562.25l0,380" />
          <path d="M-92187.07,43942.25l0,-380" />
          <path d="M-90187.07,43815.58l-2000,0" />
          <path d="M-90187.07,43688.91l-2000,0" />
          <path d="M-92187.07,43562.25l2000,0" />
          <path d="M-92187.07,43942.25l2000,0" />
          <path d="M-87187.07,43942.25l0,-380" />
          <path d="M-89187.07,43562.25l0,380" />
          <path d="M-87187.07,43688.91l-2000,0" />
          <path d="M-87187.07,43815.58l-2000,0" />
          <path d="M-89187.07,43942.25l2000,0" />
          <path d="M-89187.07,43562.25l2000,0" />
          <path d="M-84187.07,43942.25l0,-380" />
          <path d="M-86187.07,43562.25l0,380" />
          <path d="M-84187.07,43688.91l-2000,0" />
          <path d="M-84187.07,43815.58l-2000,0" />
          <path d="M-86187.07,43942.25l2000,0" />
          <path d="M-86187.07,43562.25l2000,0" />
          <path d="M-81187.07,43942.25l0,-380" />
          <path d="M-83187.07,43562.25l0,380" />
          <path d="M-81187.07,43688.91l-2000,0" />
          <path d="M-81187.07,43815.58l-2000,0" />
          <path d="M-83187.07,43942.25l2000,0" />
          <path d="M-83187.07,43562.25l2000,0" />
          <path d="M-67154.57,43942.25l0,-380" />
          <path d="M-69154.57,43815.58l2000,0" />
          <path d="M-69154.57,43688.91l2000,0" />
          <path d="M-67154.57,43562.25l-2000,0" />
          <path d="M-67154.57,43942.25l-2000,0" />
          <path d="M-39689.57,59812.25l0,-380" />
          <path d="M-41689.57,59432.25l0,380" />
          <path d="M-39689.57,59558.91l-2000,0" />
          <path d="M-39689.57,59685.58l-2000,0" />
          <path d="M-41689.57,59812.25l2000,0" />
          <path d="M-41689.57,59432.25l2000,0" />
          <path d="M-61187.07,59812.25l0,-380" />
          <path d="M-63187.07,59432.25l0,380" />
          <path d="M-61187.07,59558.91l-2000,0" />
          <path d="M-61187.07,59685.58l-2000,0" />
          <path d="M-63187.07,59812.25l2000,0" />
          <path d="M-63187.07,59432.25l2000,0" />
          <path d="M-58187.07,59812.25l0,-380" />
          <path d="M-60187.07,59432.25l0,380" />
          <path d="M-58187.07,59558.91l-2000,0" />
          <path d="M-58187.07,59685.58l-2000,0" />
          <path d="M-60187.07,59812.25l2000,0" />
          <path d="M-60187.07,59432.25l2000,0" />
          <path d="M-55187.07,59812.25l0,-380" />
          <path d="M-57187.07,59432.25l0,380" />
          <path d="M-55187.07,59558.91l-2000,0" />
          <path d="M-55187.07,59685.58l-2000,0" />
          <path d="M-57187.07,59812.25l2000,0" />
          <path d="M-57187.07,59432.25l2000,0" />
          <path d="M-52187.07,59812.25l0,-380" />
          <path d="M-54187.07,59432.25l0,380" />
          <path d="M-52187.07,59558.91l-2000,0" />
          <path d="M-52187.07,59685.58l-2000,0" />
          <path d="M-54187.07,59812.25l2000,0" />
          <path d="M-54187.07,59432.25l2000,0" />
          <path d="M-49187.07,59812.25l0,-380" />
          <path d="M-51187.07,59432.25l0,380" />
          <path d="M-49187.07,59558.91l-2000,0" />
          <path d="M-49187.07,59685.58l-2000,0" />
          <path d="M-51187.07,59812.25l2000,0" />
          <path d="M-51187.07,59432.25l2000,0" />
          <path d="M-46187.07,59812.25l0,-380" />
          <path d="M-48187.07,59432.25l0,380" />
          <path d="M-46187.07,59558.91l-2000,0" />
          <path d="M-46187.07,59685.58l-2000,0" />
          <path d="M-48187.07,59812.25l2000,0" />
          <path d="M-48187.07,59432.25l2000,0" />
          <path d="M-43187.07,59812.25l0,-380" />
          <path d="M-45187.07,59432.25l0,380" />
          <path d="M-43187.07,59558.91l-2000,0" />
          <path d="M-43187.07,59685.58l-2000,0" />
          <path d="M-45187.07,59812.25l2000,0" />
          <path d="M-45187.07,59432.25l2000,0" />
          <path d="M-38432.07,43687.2l-380,0" />
          <path d="M-38812.07,41687.2l380,0" />
          <path d="M-38685.41,43687.2l0,-2000" />
          <path d="M-38558.74,43687.2l0,-2000" />
          <path d="M-38432.07,41687.2l0,2000" />
          <path d="M-38812.07,41687.2l0,2000" />
          <path d="M-30317.07,40562.25l0,380" />
          <path d="M-28317.07,40942.25l0,-380" />
          <path d="M-30317.07,40815.58l2000,0" />
          <path d="M-30317.07,40688.91l2000,0" />
          <path d="M-28317.07,40562.25l-2000,0" />
          <path d="M-28317.07,40942.25l-2000,0" />
          <path d="M-37244.57,40942.25l0,-380" />
          <path d="M-35244.57,40562.25l0,380" />
          <path d="M-37244.57,40688.91l2000,0" />
          <path d="M-37244.57,40815.58l2000,0" />
          <path d="M-35244.57,40942.25l-2000,0" />
          <path d="M-35244.57,40562.25l-2000,0" />
          <path d="M-47187.07,43562.25l0,380" />
          <path d="M-45187.07,43942.25l0,-380" />
          <path d="M-47187.07,43815.58l2000,0" />
          <path d="M-47187.07,43688.91l2000,0" />
          <path d="M-45187.07,43562.25l-2000,0" />
          <path d="M-45187.07,43942.25l-2000,0" />
          <path d="M-44187.07,43942.25l0,-380" />
          <path d="M-42187.07,43562.25l0,380" />
          <path d="M-44187.07,43688.91l2000,0" />
          <path d="M-44187.07,43815.58l2000,0" />
          <path d="M-42187.07,43942.25l-2000,0" />
          <path d="M-42187.07,43562.25l-2000,0" />
          <path d="M-41187.07,43942.25l0,-380" />
          <path d="M-39187.07,43562.25l0,380" />
          <path d="M-41187.07,43688.91l2000,0" />
          <path d="M-41187.07,43815.58l2000,0" />
          <path d="M-39187.07,43942.25l-2000,0" />
          <path d="M-39187.07,43562.25l-2000,0" />
          <path d="M-50187.07,43942.25l0,-380" />
          <path d="M-48187.07,43562.25l0,380" />
          <path d="M-50187.07,43688.91l2000,0" />
          <path d="M-50187.07,43815.58l2000,0" />
          <path d="M-48187.07,43942.25l-2000,0" />
          <path d="M-48187.07,43562.25l-2000,0" />
          <path d="M-53187.07,43942.25l0,-380" />
          <path d="M-51187.07,43562.25l0,380" />
          <path d="M-53187.07,43688.91l2000,0" />
          <path d="M-53187.07,43815.58l2000,0" />
          <path d="M-51187.07,43942.25l-2000,0" />
          <path d="M-51187.07,43562.25l-2000,0" />
          <path d="M-56187.07,43562.25l0,380" />
          <path d="M-54187.07,43942.25l0,-380" />
          <path d="M-56187.07,43815.58l2000,0" />
          <path d="M-56187.07,43688.91l2000,0" />
          <path d="M-54187.07,43562.25l-2000,0" />
          <path d="M-54187.07,43942.25l-2000,0" />
          <path d="M-26497.07,42749.97l-250,0" />
          <path d="M-26747.07,44749.97l250,0" />
          <path d="M-26663.74,42749.97l0,2000" />
          <path d="M-26580.41,42749.97l0,2000" />
          <path d="M-26497.07,44749.97l0,-2000" />
          <path d="M-26747.07,44749.97l0,-2000" />
          <path d="M-26497.07,46437.25l-250,0" />
          <path d="M-26747.07,48437.25l250,0" />
          <path d="M-26663.74,46437.25l0,2000" />
          <path d="M-26580.41,46437.25l0,2000" />
          <path d="M-26497.07,48437.25l0,-2000" />
          <path d="M-26747.07,48437.25l0,-2000" />
          <path d="M-26497.07,50187.25l-250,0" />
          <path d="M-26747.07,52187.25l250,0" />
          <path d="M-26663.74,50187.25l0,2000" />
          <path d="M-26580.41,50187.25l0,2000" />
          <path d="M-26497.07,52187.25l0,-2000" />
          <path d="M-26747.07,52187.25l0,-2000" />
          <path d="M-26497.07,57507.25l-250,0" />
          <path d="M-26747.07,59507.25l250,0" />
          <path d="M-26663.74,57507.25l0,2000" />
          <path d="M-26580.41,57507.25l0,2000" />
          <path d="M-26497.07,59507.25l0,-2000" />
          <path d="M-26747.07,59507.25l0,-2000" />
          <path d="M-26497.07,53937.25l-250,0" />
          <path d="M-26747.07,55937.25l250,0" />
          <path d="M-26663.74,53937.25l0,2000" />
          <path d="M-26580.41,53937.25l0,2000" />
          <path d="M-26497.07,55937.25l0,-2000" />
          <path d="M-26747.07,55937.25l0,-2000" />
          <path d="M-37312.07,61432.25l0,380" />
          <path d="M-35312.07,61812.25l0,-380" />
          <path d="M-37312.07,61685.58l2000,0" />
          <path d="M-37312.07,61558.91l2000,0" />
          <path d="M-35312.07,61432.25l-2000,0" />
          <path d="M-35312.07,61812.25l-2000,0" />
          <path d="M-31556.05,61812.25l0,-380" />
          <path d="M-33556.05,61432.25l0,380" />
          <path d="M-31556.05,61558.91l-2000,0" />
          <path d="M-31556.05,61685.58l-2000,0" />
          <path d="M-33556.05,61812.25l2000,0" />
          <path d="M-33556.05,61432.25l2000,0" />
          <path d="M-28317.07,61432.25l0,380" />
          <path d="M-30317.07,61812.25l0,-380" />
          <path d="M-28317.07,61685.58l-2000,0" />
          <path d="M-28317.07,61558.91l-2000,0" />
          <path d="M-30317.07,61432.25l2000,0" />
          <path d="M-30317.07,61812.25l2000,0" />
          <path d="M-65187.07,43942.25l0,-380" />
          <path d="M-63187.07,43562.25l0,380" />
          <path d="M-65187.07,43688.91l2000,0" />
          <path d="M-65187.07,43815.58l2000,0" />
          <path d="M-63187.07,43942.25l-2000,0" />
          <path d="M-63187.07,43562.25l-2000,0" />
          <path d="M-62187.07,43942.25l0,-380" />
          <path d="M-60187.07,43562.25l0,380" />
          <path d="M-62187.07,43688.91l2000,0" />
          <path d="M-62187.07,43815.58l2000,0" />
          <path d="M-60187.07,43942.25l-2000,0" />
          <path d="M-60187.07,43562.25l-2000,0" />
          <path d="M-59187.07,43942.25l0,-380" />
          <path d="M-57187.07,43562.25l0,380" />
          <path d="M-59187.07,43688.91l2000,0" />
          <path d="M-59187.07,43815.58l2000,0" />
          <path d="M-57187.07,43942.25l-2000,0" />
          <path d="M-57187.07,43562.25l-2000,0" />
          <path d="M-64187.07,59812.25l0,-380" />
          <path d="M-66187.07,59432.25l0,380" />
          <path d="M-64187.07,59558.91l-2000,0" />
          <path d="M-64187.07,59685.58l-2000,0" />
          <path d="M-66187.07,59812.25l2000,0" />
          <path d="M-66187.07,59432.25l2000,0" />
          <path d="M-82187.07,59812.25l0,-380" />
          <path d="M-80187.07,59432.25l0,380" />
          <path d="M-82187.07,59558.91l2000,0" />
          <path d="M-82187.07,59685.58l2000,0" />
          <path d="M-80187.07,59812.25l-2000,0" />
          <path d="M-69497.28,43562.25l0,-1875l-7379.79,0l0,1875" />
          <path d="M-76497.07,43562.25l6619.75,0l0.25,-1495l-5251.95,0l-1368.05,0l0,1495" />
          <path d="M-69154.57,43942.25l0,-380" />
        </g>
        <g id="layer-dr" class="dr">
          <path d="M-81062.07,48712.25l50,0" />
          <path d="M-81012.07,49687.25l-50,0" />
          <path d="M-82012.07,49687.25a975,975 0 0,1 950,-974.68" />
          <path d="M-81012.07,49687.25l0,-975" />
          <path d="M-81062.07,49687.25l0,-975" />
          <path d="M-99062.07,48712.25l50,0" />
          <path d="M-99012.07,49687.25l-50,0" />
          <path d="M-100012.07,49687.25a975,975 0 0,1 950,-974.68" />
          <path d="M-99012.07,49687.25l0,-975" />
          <path d="M-99062.07,49687.25l0,-975" />
          <path d="M-90062.07,48712.25l50,0" />
          <path d="M-90012.07,49687.25l-50,0" />
          <path d="M-91012.07,49687.25a975,975 0 0,1 950,-974.68" />
          <path d="M-90012.07,49687.25l0,-975" />
          <path d="M-90062.07,49687.25l0,-975" />
          <path d="M-95057.07,53662.25l50,0" />
          <path d="M-95007.07,52687.25l-50,0" />
          <path d="M-95057.07,53661.92a975,975 0 0,1 -950,-974.68" />
          <path d="M-95007.07,52687.25l0,975" />
          <path d="M-95057.07,52687.25l0,975" />
          <path d="M-109381.57,52687.25l0,873" />
          <path d="M-109381.57,53560.25a873,873 0 0,1 -873,-873" />
          <path d="M-110254.57,52687.25a873,873 0 0,1 -873,873" />
          <path d="M-111127.57,52687.25l0,873" />
          <path d="M-77177.07,59622.25l-560,-969.95" />
          <path d="M-78297.07,59622.25a1120,1120 0 0,1 560,-969.95" />
          <path d="M-77737.07,60592.19a1120,1120 0 0,1 -560,-969.95" />
          <path d="M-77177.07,59622.25l-560,969.95" />
          <path d="M-79687.07,59132.25l-866.03,-500" />
          <path d="M-80553.1,58632.25a1000,1000 0 0,1 866.03,-500" />
          <path d="M-79687.07,58132.25a1000,1000 0 0,1 866.03,500" />
          <path d="M-79687.07,59132.25l866.03,-500" />
          <path d="M-69197.07,59622.25l500,866.03" />
          <path d="M-68197.07,59622.25a1000,1000 0 0,1 -500,866.03" />
          <path d="M-68697.07,58756.22a1000,1000 0 0,1 500,866.03" />
          <path d="M-69197.07,59622.25l500,-866.03" />
          <path d="M-63312.07,53662.25l-50,0" />
          <path d="M-63362.07,52687.25l50,0" />
          <path d="M-62362.07,52687.25a975,975 0 0,1 -950,974.68" />
          <path d="M-63362.07,52687.25l0,975" />
          <path d="M-63312.07,52687.25l0,975" />
          <path d="M-83040.66,53662.25l50,0" />
          <path d="M-82990.66,52687.25l-50,0" />
          <path d="M-83040.66,53661.92a975,975 0 0,1 -950,-974.68" />
          <path d="M-82990.66,52687.25l0,975" />
          <path d="M-83040.66,52687.25l0,975" />
          <path d="M-98307.38,48712.25l-50,0" />
          <path d="M-98357.38,49687.25l50,0" />
          <path d="M-98307.38,48712.57a975,975 0 0,1 950,974.68" />
          <path d="M-98357.38,49687.25l0,-975" />
          <path d="M-98307.38,49687.25l0,-975" />
          <path d="M-107307.38,48712.25l-50,0" />
          <path d="M-107357.38,49687.25l50,0" />
          <path d="M-107307.38,48712.57a975,975 0 0,1 950,974.68" />
          <path d="M-107357.38,49687.25l0,-975" />
          <path d="M-107307.38,49687.25l0,-975" />
          <path d="M-89307.38,48712.25l-50,0" />
          <path d="M-89357.38,49687.25l50,0" />
          <path d="M-89307.38,48712.57a975,975 0 0,1 950,974.68" />
          <path d="M-89357.38,49687.25l0,-975" />
          <path d="M-89307.38,49687.25l0,-975" />
          <path d="M-51317.07,53662.25l-50,0" />
          <path d="M-51367.07,52687.25l50,0" />
          <path d="M-50367.07,52687.25a975,975 0 0,1 -950,974.68" />
          <path d="M-51367.07,52687.25l0,975" />
          <path d="M-51317.07,52687.25l0,975" />
          <path d="M-56307.38,48712.25l-50,0" />
          <path d="M-56357.38,49687.25l50,0" />
          <path d="M-56307.38,48712.57a975,975 0 0,1 950,974.68" />
          <path d="M-56357.38,49687.25l0,-975" />
          <path d="M-56307.38,49687.25l0,-975" />
          <path d="M-65307.38,48712.25l-50,0" />
          <path d="M-65357.38,49687.25l50,0" />
          <path d="M-65307.38,48712.57a975,975 0 0,1 950,974.68" />
          <path d="M-65357.38,49687.25l0,-975" />
          <path d="M-65307.38,49687.25l0,-975" />
          <path d="M-47307.38,48712.25l-50,0" />
          <path d="M-47357.38,49687.25l50,0" />
          <path d="M-47307.38,48712.57a975,975 0 0,1 950,974.68" />
          <path d="M-47357.38,49687.25l0,-975" />
          <path d="M-47307.38,49687.25l0,-975" />
          <path d="M-36992.57,52687.25l0,873" />
          <path d="M-36119.57,52687.25a873,873 0 0,1 -873,873" />
          <path d="M-35246.57,53560.25a873,873 0 0,1 -873,-873" />
          <path d="M-35246.57,52687.25l0,873" />
          <path d="M-109381.57,49687.25l0,-873" />
          <path d="M-110254.57,49687.25a873,873 0 0,1 873,-873" />
          <path d="M-111127.57,48814.25a873,873 0 0,1 873,873" />
          <path d="M-111127.57,49687.25l0,-873" />
          <path d="M-115057.07,53662.25l50,0" />
          <path d="M-115007.07,52687.25l-50,0" />
          <path d="M-115057.07,53661.92a975,975 0 0,1 -950,-974.68" />
          <path d="M-115007.07,52687.25l0,975" />
          <path d="M-115057.07,52687.25l0,975" />
          <path d="M-115057.07,48712.25l50,0" />
          <path d="M-115007.07,49687.25l-50,0" />
          <path d="M-116007.07,49687.25a975,975 0 0,1 950,-974.68" />
          <path d="M-115007.07,49687.25l0,-975" />
          <path d="M-115057.07,49687.25l0,-975" />
          <path d="M-80314.8,48712.25l-50,0" />
          <path d="M-80364.8,49687.25l50,0" />
          <path d="M-80314.8,48712.57a975,975 0 0,1 950,974.68" />
          <path d="M-80364.8,49687.25l0,-975" />
          <path d="M-80314.8,49687.25l0,-975" />
          <path d="M-36992.57,49687.25l0,-873" />
          <path d="M-36992.57,48814.25a873,873 0 0,1 873,873" />
          <path d="M-36119.57,49687.25a873,873 0 0,1 873,-873" />
          <path d="M-35246.57,49687.25l0,-873" />
          <path d="M-30712.07,44881.84l0,50" />
          <path d="M-31687.07,44931.84l0,-50" />
          <path d="M-31687.07,43931.84a975,975 0 0,1 974.68,950" />
          <path d="M-31687.07,44931.84l975,0" />
          <path d="M-31687.07,44881.84l975,0" />
          <path d="M-107579.99,52073.74l-873,0" />
          <path d="M-108452.99,52073.74a873,873 0 0,1 873,-873" />
          <path d="M-107579.99,51200.74a873,873 0 0,1 -873,-873" />
          <path d="M-107579.99,50327.74l-873,0" />
          <path d="M-86062.07,53662.25l50,0" />
          <path d="M-86012.07,52687.25l-50,0" />
          <path d="M-86062.07,53661.92a975,975 0 0,1 -950,-974.68" />
          <path d="M-86012.07,52687.25l0,975" />
          <path d="M-86062.07,52687.25l0,975" />
          <path d="M-72217.07,49687.25l0,-970" />
          <path d="M-73187.07,49687.25a970,970 0 0,1 970,-970" />
          <path d="M-74157.07,48717.25a970,970 0 0,1 970,970" />
          <path d="M-74157.07,49687.25l0,-970" />
          <path d="M-75103.54,48712.25l-50,0" />
          <path d="M-75103.54,48712.57a975,975 0 0,1 950,974.68" />
          <path d="M-75153.54,49687.25l0,-975" />
          <path d="M-75103.54,49687.25l0,-975" />
          <path d="M-71244.47,48712.25l50,0" />
          <path d="M-72194.47,49687.25a975,975 0 0,1 950,-974.68" />
          <path d="M-71194.47,49687.25l0,-975" />
          <path d="M-71244.47,49687.25l0,-975" />
          <path d="M-69248.24,48712.25l-50,0" />
          <path d="M-69298.24,49687.25l50,0" />
          <path d="M-69248.24,48712.57a975,975 0 0,1 950,974.68" />
          <path d="M-69298.24,49687.25l0,-975" />
          <path d="M-69248.24,49687.25l0,-975" />
          <path d="M-38794.16,52073.74l873,0" />
          <path d="M-38794.16,51200.74a873,873 0 0,1 873,873" />
          <path d="M-37921.16,50327.74a873,873 0 0,1 -873,873" />
          <path d="M-38794.16,50327.74l873,0" />
          <path d="M-30844.54,56162.68a873,873 0 0,1 -873,873" />
          <path d="M-31717.54,56162.68l873,0" />
          <path d="M-31717.54,54766.61a873,873 0 0,1 873,873" />
          <path d="M-31717.54,55639.61l873,0" />
          <path d="M-32305.63,57148.64a873,873 0 0,1 -873,873" />
          <path d="M-33178.63,57148.64l0,873" />
          <path d="M-33178.63,42890.89a873,873 0 0,1 873,873" />
          <path d="M-33178.63,43763.89l0,-873" />
          <path d="M-30712.07,46333.62l0,50" />
          <path d="M-31687.07,45383.62a975,975 0 0,1 974.68,950" />
          <path d="M-31687.07,46383.62l975,0" />
          <path d="M-31687.07,46333.62l975,0" />
        </g>
        <g id="layer-wa" class="wa">
          <path d="M-69497.07,59432.25l5685,0l0,-6555l-5685,0z" />
          <path d="M-114567.07,49877.25l-5060,0l0,2620l0,-2620l5060,0l38070,0l0,-380" />
          <path d="M-38812.07,52497.25l0,6935l-3755,0l0,-6935l-27310,0l0,7315l3320,0l0,2685l-13260,0l0,-2685l3320,0l0,-7315l-27310,0l0,6935l-3755,0l0,-6935l-5245,0l-6820,0" />
          <path d="M-82562.07,59432.25l5685,0l0,-6555l-5685,0l0,6555" />
          <path d="M-33567.07,45307.25l190,0" />
          <path d="M-33377.07,45307.25l0,-240" />
          <path d="M-33377.07,45067.25l-190,0" />
          <path d="M-76497.07,49877.25l6620,0" />
          <path d="M-69877.07,49497.25l0,380" />
          <path d="M-69877.07,49877.25l36310,0" />
          <path d="M-33567.07,49877.25l0,-8935" />
          <path d="M-33567.07,40942.25l760,0" />
          <path d="M-32807.07,40942.25l1000,0" />
          <path d="M-31807.07,40942.25l0,0" />
          <path d="M-31807.07,40942.25l0,0" />
          <path d="M-31807.07,40942.25l0,0" />
          <path d="M-31807.07,40942.25l0,16125" />
          <path d="M-31807.07,57067.25l-1760,0" />
          <path d="M-33567.07,57067.25l0,-4570" />
          <path d="M-33567.07,52497.25l-5245,0" />
          <path d="M-107562.07,52497.25l0,-423.5" />
          <path d="M-107562.07,52073.74l-240,0" />
          <path d="M-107802.07,52073.74l0,423.5" />
          <path d="M-107562.07,49877.25l0,450.5" />
          <path d="M-107562.07,50327.74l-240,0" />
          <path d="M-107802.07,50327.74l0,-450.5" />
          <path d="M-38812.07,52497.25l0,-423.5" />
          <path d="M-38812.07,52073.74l240,0" />
          <path d="M-38572.07,52073.74l0,423.5" />
          <path d="M-38812.07,49877.25l0,450.5" />
          <path d="M-38812.07,50327.74l240,0" />
          <path d="M-38572.07,50327.74l0,-450.5" />
          <path d="M-31567.07,56243.23l0,240" />
          <path d="M-31807.07,43888.11l-1760,0" />
          <path d="M-31807.07,45307.25l-190,0" />
          <path d="M-31997.07,45307.25l0,-240" />
          <path d="M-31997.07,45067.25l190,0" />
        </g>
        <g id="layer-STAIR" class="stair">
          <path d="M-107562.07,53732.25l0,94.1" />
          <path d="M-107562.07,53938.15l0,3694.1" />
          <path d="M-105762.07,53732.25l0,994.1" />
          <path d="M-105762.07,54838.15l0,2794.1" />
          <path d="M-107562.07,53732.25l1800,0" />
          <path d="M-107562.07,54032.25l188.2,0" />
          <path d="M-107150.27,54032.25l1388.2,0" />
          <path d="M-107562.07,54332.25l788.2,0" />
          <path d="M-106550.27,54332.25l788.2,0" />
          <path d="M-107562.07,54632.25l1388.2,0" />
          <path d="M-105950.27,54632.25l188.2,0" />
          <path d="M-107562.07,54932.25l1800,0" />
          <path d="M-107562.07,55232.25l1800,0" />
          <path d="M-107562.07,55532.25l1800,0" />
          <path d="M-107562.07,55832.25l1800,0" />
          <path d="M-107562.07,56132.25l1800,0" />
          <path d="M-107562.07,56432.25l1800,0" />
          <path d="M-107562.07,56732.25l1800,0" />
          <path d="M-107562.07,57032.25l1800,0" />
          <path d="M-107562.07,57332.25l1800,0" />
          <path d="M-107562.07,57632.25l1800,0" />
          <path d="M-107562.07,53938.15l809.27,404.63" />
          <path d="M-107562.07,53826.34l830.02,415.01" />
          <path d="M-106732.05,54241.36l-35.77,174.81" />
          <path d="M-106767.82,54416.16l195.32,-184.93" />
          <path d="M-106572.51,54231.24l-37.44,182.97" />
          <path d="M-106609.95,54414.21l847.87,423.94" />
          <path d="M-106589.19,54312.78l827.12,413.56" />
          <path d="M-103807.07,57632.25l0,-3900" />
          <path d="M-103807.07,57632.25l-1740,0" />
          <path d="M-103807.07,57332.25l-1740,0" />
          <path d="M-103807.07,57032.25l-1740,0" />
          <path d="M-103807.07,56732.25l-1740,0" />
          <path d="M-103807.07,56432.25l-1740,0" />
          <path d="M-103807.07,56132.25l-1740,0" />
          <path d="M-103807.07,55832.25l-1740,0" />
          <path d="M-103807.07,55532.25l-1740,0" />
          <path d="M-103807.07,55232.25l-1740,0" />
          <path d="M-103807.07,54932.25l-1740,0" />
          <path d="M-103807.07,54632.25l-1740,0" />
          <path d="M-103807.07,54332.25l-1740,0" />
          <path d="M-103807.07,54032.25l-1740,0" />
          <path d="M-103807.07,53732.25l-1740,0" />
          <path d="M-105607.07,57632.25l0,-3900" />
          <path d="M-105547.07,53582.25l-275,0" />
          <path d="M-105822.07,53582.25l0,1114.1" />
          <path d="M-105822.07,54808.15l0,2974.1" />
          <path d="M-105822.07,57782.25l275,0" />
          <path d="M-105547.07,57782.25l0,-4200" />
          <path d="M-105607.07,53642.25l-155,0" />
          <path d="M-105762.07,53642.25l0,1084.1" />
          <path d="M-105762.07,54838.15l0,2884.1" />
          <path d="M-105762.07,57722.25l155,0" />
          <path d="M-105607.07,57722.25l0,-4080" />
          <path d="M-105762.07,53732.25l155,0" />
          <path d="M-106604.16,53096.73l0,2046.25l0,300" />
          <path d="M-104694.71,53184.99l8.05,5341.38l-1905.6,2.09l0,-2216.6l0,-300" />
          <path d="M-71477.07,55042.98l-110,0" />
          <path d="M-74897.07,55042.98l110,0" />
          <path d="M-73181.53,54596.55l0,5305.16l2531.17,0l0,-2311.45l0,-300" />
          <path d="M-70650.36,54534.87l0,1900.2l0,300" />
          <path d="M-75671.55,54555.43l0,1859.08l0,300" />
          <path d="M-40612.07,53732.25l0,994.1" />
          <path d="M-40612.07,54838.15l0,2794.1" />
          <path d="M-38812.07,53732.25l-1800,0" />
          <path d="M-39223.88,54032.25l-1388.2,0" />
          <path d="M-38812.07,54332.25l-788.2,0" />
          <path d="M-39823.88,54332.25l-788.2,0" />
          <path d="M-38812.07,54632.25l-1388.2,0" />
          <path d="M-40423.88,54632.25l-188.2,0" />
          <path d="M-38812.07,54932.25l-1800,0" />
          <path d="M-38812.07,55232.25l-1800,0" />
          <path d="M-38812.07,55532.25l-1800,0" />
          <path d="M-38812.07,55832.25l-1800,0" />
          <path d="M-38812.07,56132.25l-1800,0" />
          <path d="M-38812.07,56432.25l-1800,0" />
          <path d="M-38812.07,56732.25l-1800,0" />
          <path d="M-38812.07,57032.25l-1800,0" />
          <path d="M-38812.07,57332.25l-1800,0" />
          <path d="M-38812.07,57632.25l-1800,0" />
          <path d="M-38812.07,53938.15l-809.27,404.63" />
          <path d="M-38812.07,53826.34l-830.02,415.01" />
          <path d="M-39642.1,54241.36l35.77,174.81" />
          <path d="M-39606.33,54416.16l-195.32,-184.93" />
          <path d="M-39801.64,54231.24l37.44,182.97" />
          <path d="M-39764.2,54414.21l-847.87,423.94" />
          <path d="M-39784.96,54312.78l-827.12,413.56" />
          <path d="M-42567.07,57632.25l1740,0" />
          <path d="M-42567.07,57332.25l1740,0" />
          <path d="M-42567.07,57032.25l1740,0" />
          <path d="M-42567.07,56732.25l1740,0" />
          <path d="M-42567.07,56432.25l1740,0" />
          <path d="M-42567.07,56132.25l1740,0" />
          <path d="M-42567.07,55832.25l1740,0" />
          <path d="M-42567.07,55532.25l1740,0" />
          <path d="M-42567.07,55232.25l1740,0" />
          <path d="M-42567.07,54932.25l1740,0" />
          <path d="M-42567.07,54632.25l1740,0" />
          <path d="M-42567.07,54332.25l1740,0" />
          <path d="M-42567.07,54032.25l1740,0" />
          <path d="M-42567.07,53732.25l1740,0" />
          <path d="M-40767.07,57632.25l0,-3900" />
          <path d="M-40827.07,53582.25l275,0" />
          <path d="M-40552.07,53582.25l0,1114.1" />
          <path d="M-40552.07,54808.15l0,2974.1" />
          <path d="M-40552.07,57782.25l-275,0" />
          <path d="M-40827.07,57782.25l0,-4200" />
          <path d="M-40767.07,53642.25l155,0" />
          <path d="M-40612.07,53642.25l0,1084.1" />
          <path d="M-40612.07,54838.15l0,2884.1" />
          <path d="M-40612.07,57722.25l-155,0" />
          <path d="M-40767.07,57722.25l0,-4080" />
          <path d="M-40612.07,53732.25l-155,0" />
          <path d="M-39769.99,53096.73l0,2046.25l0,300" />
          <path d="M-41679.44,53184.99l-8.05,5341.38l1905.6,2.09l0,-2216.6l0,-300" />
        </g>
        <g id="layer-gros" class="gros">
          <path d="M-119877.07,61812.25l12315,0l0,-2000l27505,0l0,2685l0,0l0,240l0,0l0,0l13740,0l0,0l0,0l0,-240l0,0l0,-2685l27505,0l0,2000l12315,0l0,-21250l-12315,0l0,3000l-30685.21,0l0,-1875l-7379.79,0l0,1875l-30685,0l0,-3000l-12315,0l0,21250z" />
        </g>
        <g id="layer-toilet" class="toilet">
          <path d="M-79747.15,59432.25l0,-2219.16" />
          <path d="M-82222.07,53467.03a40,40 0 0,1 -40,-40" />
          <path d="M-82222.07,53437.03a10,10 0 0,1 -10,-10" />
          <path d="M-82262.07,53227.46a40,40 0 0,1 40,-40" />
          <path d="M-82232.07,53227.46a10,10 0 0,1 10,-10" />
          <path d="M-82232.07,53427.03l0,-199.57" />
          <path d="M-82262.07,53427.03l0,-199.57" />
          <path d="M-81672.42,53297.46l0,59.57" />
          <path d="M-81782.42,53187.46a110,110 0 0,1 110,110" />
          <path d="M-81792.42,53467.03l0,-279.57" />
          <path d="M-81672.42,53357.03a110,110 0 0,1 -110,110" />
          <path d="M-82222.07,53187.46l439.66,0" />
          <path d="M-82222.07,53217.46l429.66,0" />
          <path d="M-81782.42,53467.03l-439.66,0" />
          <path d="M-81792.42,53437.03l-429.66,0" />
          <path d="M-82222.07,54367.03a40,40 0 0,1 -40,-40" />
          <path d="M-82222.07,54337.03a10,10 0 0,1 -10,-10" />
          <path d="M-82262.07,54127.46a40,40 0 0,1 40,-40" />
          <path d="M-82232.07,54127.46a10,10 0 0,1 10,-10" />
          <path d="M-82232.07,54327.03l0,-199.57" />
          <path d="M-82262.07,54327.03l0,-199.57" />
          <path d="M-81672.42,54197.46l0,59.57" />
          <path d="M-81782.42,54087.46a110,110 0 0,1 110,110" />
          <path d="M-81792.42,54367.03l0,-279.57" />
          <path d="M-81672.42,54257.03a110,110 0 0,1 -110,110" />
          <path d="M-82222.07,54087.46l439.66,0" />
          <path d="M-82222.07,54117.46l429.66,0" />
          <path d="M-81782.42,54367.03l-439.66,0" />
          <path d="M-81792.42,54337.03l-429.66,0" />
          <path d="M-82222.07,55267.03a40,40 0 0,1 -40,-40" />
          <path d="M-82222.07,55237.03a10,10 0 0,1 -10,-10" />
          <path d="M-82262.07,55027.46a40,40 0 0,1 40,-40" />
          <path d="M-82232.07,55027.46a10,10 0 0,1 10,-10" />
          <path d="M-82232.07,55227.03l0,-199.57" />
          <path d="M-82262.07,55227.03l0,-199.57" />
          <path d="M-81672.42,55097.46l0,59.57" />
          <path d="M-81782.42,54987.46a110,110 0 0,1 110,110" />
          <path d="M-81792.42,55267.03l0,-279.57" />
          <path d="M-81672.42,55157.03a110,110 0 0,1 -110,110" />
          <path d="M-82222.07,54987.46l439.66,0" />
          <path d="M-82222.07,55017.46l429.66,0" />
          <path d="M-81782.42,55267.03l-439.66,0" />
          <path d="M-81792.42,55237.03l-429.66,0" />
          <path d="M-82222.07,56167.03a40,40 0 0,1 -40,-40" />
          <path d="M-82222.07,56137.03a10,10 0 0,1 -10,-10" />
          <path d="M-82262.07,55927.46a40,40 0 0,1 40,-40" />
          <path d="M-82232.07,55927.46a10,10 0 0,1 10,-10" />
          <path d="M-82232.07,56127.03l0,-199.57" />
          <path d="M-82262.07,56127.03l0,-199.57" />
          <path d="M-81672.42,55997.46l0,59.57" />
          <path d="M-81782.42,55887.46a110,110 0 0,1 110,110" />
          <path d="M-81792.42,56167.03l0,-279.57" />
          <path d="M-81672.42,56057.03a110,110 0 0,1 -110,110" />
          <path d="M-82222.07,55887.46l439.66,0" />
          <path d="M-82222.07,55917.46l429.66,0" />
          <path d="M-81782.42,56167.03l-439.66,0" />
          <path d="M-81792.42,56137.03l-429.66,0" />
          <path d="M-82222.07,57067.03a40,40 0 0,1 -40,-40" />
          <path d="M-82222.07,57037.03a10,10 0 0,1 -10,-10" />
          <path d="M-82262.07,56827.46a40,40 0 0,1 40,-40" />
          <path d="M-82232.07,56827.46a10,10 0 0,1 10,-10" />
          <path d="M-82232.07,57027.03l0,-199.57" />
          <path d="M-82262.07,57027.03l0,-199.57" />
          <path d="M-81672.42,56897.46l0,59.57" />
          <path d="M-81782.42,56787.46a110,110 0 0,1 110,110" />
          <path d="M-81792.42,57067.03l0,-279.57" />
          <path d="M-81672.42,56957.03a110,110 0 0,1 -110,110" />
          <path d="M-82222.07,56787.46l439.66,0" />
          <path d="M-82222.07,56817.46l429.66,0" />
          <path d="M-81782.42,57067.03l-439.66,0" />
          <path d="M-81792.42,57037.03l-429.66,0" />
          <path d="M-82222.07,57967.03a40,40 0 0,1 -40,-40" />
          <path d="M-82222.07,57937.03a10,10 0 0,1 -10,-10" />
          <path d="M-82262.07,57727.46a40,40 0 0,1 40,-40" />
          <path d="M-82232.07,57727.46a10,10 0 0,1 10,-10" />
          <path d="M-82232.07,57927.03l0,-199.57" />
          <path d="M-82262.07,57927.03l0,-199.57" />
          <path d="M-81672.42,57797.46l0,59.57" />
          <path d="M-81782.42,57687.46a110,110 0 0,1 110,110" />
          <path d="M-81792.42,57967.03l0,-279.57" />
          <path d="M-81672.42,57857.03a110,110 0 0,1 -110,110" />
          <path d="M-82222.07,57687.46l439.66,0" />
          <path d="M-82222.07,57717.46l429.66,0" />
          <path d="M-81782.42,57967.03l-439.66,0" />
          <path d="M-81792.42,57937.03l-429.66,0" />
          <path d="M-79087.07,53187.46a40,40 0 0,1 40,40" />
          <path d="M-79087.07,53217.46a10,10 0 0,1 10,10" />
          <path d="M-79047.07,53427.03a40,40 0 0,1 -40,40" />
          <path d="M-79077.07,53427.03a10,10 0 0,1 -10,10" />
          <path d="M-79077.07,53227.46l0,199.57" />
          <path d="M-79047.07,53227.46l0,199.57" />
          <path d="M-79636.73,53357.03l0,-59.57" />
          <path d="M-79526.73,53467.03a110,110 0 0,1 -110,-110" />
          <path d="M-79516.73,53187.46l0,279.57" />
          <path d="M-79636.73,53297.46a110,110 0 0,1 110,-110" />
          <path d="M-79087.07,53467.03l-439.66,0" />
          <path d="M-79087.07,53437.03l-429.66,0" />
          <path d="M-79526.73,53187.46l439.66,0" />
          <path d="M-79516.73,53217.46l429.66,0" />
          <path d="M-79087.07,54087.46a40,40 0 0,1 40,40" />
          <path d="M-79087.07,54117.46a10,10 0 0,1 10,10" />
          <path d="M-79047.07,54327.03a40,40 0 0,1 -40,40" />
          <path d="M-79077.07,54327.03a10,10 0 0,1 -10,10" />
          <path d="M-79077.07,54127.46l0,199.57" />
          <path d="M-79047.07,54127.46l0,199.57" />
          <path d="M-79636.73,54257.03l0,-59.57" />
          <path d="M-79526.73,54367.03a110,110 0 0,1 -110,-110" />
          <path d="M-79516.73,54087.46l0,279.57" />
          <path d="M-79636.73,54197.46a110,110 0 0,1 110,-110" />
          <path d="M-79087.07,54367.03l-439.66,0" />
          <path d="M-79087.07,54337.03l-429.66,0" />
          <path d="M-79526.73,54087.46l439.66,0" />
          <path d="M-79516.73,54117.46l429.66,0" />
          <path d="M-79087.07,54987.46a40,40 0 0,1 40,40" />
          <path d="M-79087.07,55017.46a10,10 0 0,1 10,10" />
          <path d="M-79047.07,55227.03a40,40 0 0,1 -40,40" />
          <path d="M-79077.07,55227.03a10,10 0 0,1 -10,10" />
          <path d="M-79077.07,55027.46l0,199.57" />
          <path d="M-79047.07,55027.46l0,199.57" />
          <path d="M-79636.73,55157.03l0,-59.57" />
          <path d="M-79526.73,55267.03a110,110 0 0,1 -110,-110" />
          <path d="M-79516.73,54987.46l0,279.57" />
          <path d="M-79636.73,55097.46a110,110 0 0,1 110,-110" />
          <path d="M-79087.07,55267.03l-439.66,0" />
          <path d="M-79087.07,55237.03l-429.66,0" />
          <path d="M-79526.73,54987.46l439.66,0" />
          <path d="M-79516.73,55017.46l429.66,0" />
          <path d="M-79087.07,55887.46a40,40 0 0,1 40,40" />
          <path d="M-79087.07,55917.46a10,10 0 0,1 10,10" />
          <path d="M-79047.07,56127.03a40,40 0 0,1 -40,40" />
          <path d="M-79077.07,56127.03a10,10 0 0,1 -10,10" />
          <path d="M-79077.07,55927.46l0,199.57" />
          <path d="M-79047.07,55927.46l0,199.57" />
          <path d="M-79636.73,56057.03l0,-59.57" />
          <path d="M-79526.73,56167.03a110,110 0 0,1 -110,-110" />
          <path d="M-79516.73,55887.46l0,279.57" />
          <path d="M-79636.73,55997.46a110,110 0 0,1 110,-110" />
          <path d="M-79087.07,56167.03l-439.66,0" />
          <path d="M-79087.07,56137.03l-429.66,0" />
          <path d="M-79526.73,55887.46l439.66,0" />
          <path d="M-79516.73,55917.46l429.66,0" />
          <path d="M-79087.07,56787.46a40,40 0 0,1 40,40" />
          <path d="M-79087.07,56817.46a10,10 0 0,1 10,10" />
          <path d="M-79047.07,57027.03a40,40 0 0,1 -40,40" />
          <path d="M-79077.07,57027.03a10,10 0 0,1 -10,10" />
          <path d="M-79077.07,56827.46l0,199.57" />
          <path d="M-79047.07,56827.46l0,199.57" />
          <path d="M-79636.73,56957.03l0,-59.57" />
          <path d="M-79526.73,57067.03a110,110 0 0,1 -110,-110" />
          <path d="M-79516.73,56787.46l0,279.57" />
          <path d="M-79636.73,56897.46a110,110 0 0,1 110,-110" />
          <path d="M-79087.07,57067.03l-439.66,0" />
          <path d="M-79087.07,57037.03l-429.66,0" />
          <path d="M-79526.73,56787.46l439.66,0" />
          <path d="M-79516.73,56817.46l429.66,0" />
          <path d="M-77217.07,53187.46a40,40 0 0,1 40,40" />
          <path d="M-77217.07,53217.46a10,10 0 0,1 10,10" />
          <path d="M-77177.07,53427.03a40,40 0 0,1 -40,40" />
          <path d="M-77207.07,53427.03a10,10 0 0,1 -10,10" />
          <path d="M-77207.07,53227.46l0,199.57" />
          <path d="M-77177.07,53227.46l0,199.57" />
          <path d="M-77766.73,53357.03l0,-59.57" />
          <path d="M-77656.73,53467.03a110,110 0 0,1 -110,-110" />
          <path d="M-77646.73,53187.46l0,279.57" />
          <path d="M-77766.73,53297.46a110,110 0 0,1 110,-110" />
          <path d="M-77217.07,53467.03l-439.66,0" />
          <path d="M-77217.07,53437.03l-429.66,0" />
          <path d="M-77656.73,53187.46l439.66,0" />
          <path d="M-77646.73,53217.46l429.66,0" />
          <path d="M-77217.07,54087.46a40,40 0 0,1 40,40" />
          <path d="M-77217.07,54117.46a10,10 0 0,1 10,10" />
          <path d="M-77177.07,54327.03a40,40 0 0,1 -40,40" />
          <path d="M-77207.07,54327.03a10,10 0 0,1 -10,10" />
          <path d="M-77207.07,54127.46l0,199.57" />
          <path d="M-77177.07,54127.46l0,199.57" />
          <path d="M-77766.73,54257.03l0,-59.57" />
          <path d="M-77656.73,54367.03a110,110 0 0,1 -110,-110" />
          <path d="M-77646.73,54087.46l0,279.57" />
          <path d="M-77766.73,54197.46a110,110 0 0,1 110,-110" />
          <path d="M-77217.07,54367.03l-439.66,0" />
          <path d="M-77217.07,54337.03l-429.66,0" />
          <path d="M-77656.73,54087.46l439.66,0" />
          <path d="M-77646.73,54117.46l429.66,0" />
          <path d="M-77217.07,54987.46a40,40 0 0,1 40,40" />
          <path d="M-77217.07,55017.46a10,10 0 0,1 10,10" />
          <path d="M-77177.07,55227.03a40,40 0 0,1 -40,40" />
          <path d="M-77207.07,55227.03a10,10 0 0,1 -10,10" />
          <path d="M-77207.07,55027.46l0,199.57" />
          <path d="M-77177.07,55027.46l0,199.57" />
          <path d="M-77766.73,55157.03l0,-59.57" />
          <path d="M-77656.73,55267.03a110,110 0 0,1 -110,-110" />
          <path d="M-77646.73,54987.46l0,279.57" />
          <path d="M-77766.73,55097.46a110,110 0 0,1 110,-110" />
          <path d="M-77217.07,55267.03l-439.66,0" />
          <path d="M-77217.07,55237.03l-429.66,0" />
          <path d="M-77656.73,54987.46l439.66,0" />
          <path d="M-77646.73,55017.46l429.66,0" />
          <path d="M-77217.07,55887.46a40,40 0 0,1 40,40" />
          <path d="M-77217.07,55917.46a10,10 0 0,1 10,10" />
          <path d="M-77177.07,56127.03a40,40 0 0,1 -40,40" />
          <path d="M-77207.07,56127.03a10,10 0 0,1 -10,10" />
          <path d="M-77207.07,55927.46l0,199.57" />
          <path d="M-77177.07,55927.46l0,199.57" />
          <path d="M-77766.73,56057.03l0,-59.57" />
          <path d="M-77656.73,56167.03a110,110 0 0,1 -110,-110" />
          <path d="M-77646.73,55887.46l0,279.57" />
          <path d="M-77766.73,55997.46a110,110 0 0,1 110,-110" />
          <path d="M-77217.07,56167.03l-439.66,0" />
          <path d="M-77217.07,56137.03l-429.66,0" />
          <path d="M-77656.73,55887.46l439.66,0" />
          <path d="M-77646.73,55917.46l429.66,0" />
          <path d="M-77217.07,56787.46a40,40 0 0,1 40,40" />
          <path d="M-77217.07,56817.46a10,10 0 0,1 10,10" />
          <path d="M-77177.07,57027.03a40,40 0 0,1 -40,40" />
          <path d="M-77207.07,57027.03a10,10 0 0,1 -10,10" />
          <path d="M-77207.07,56827.46l0,199.57" />
          <path d="M-77177.07,56827.46l0,199.57" />
          <path d="M-77766.73,56957.03l0,-59.57" />
          <path d="M-77656.73,57067.03a110,110 0 0,1 -110,-110" />
          <path d="M-77646.73,56787.46l0,279.57" />
          <path d="M-77766.73,56897.46a110,110 0 0,1 110,-110" />
          <path d="M-77217.07,57067.03l-439.66,0" />
          <path d="M-77217.07,57037.03l-429.66,0" />
          <path d="M-77656.73,56787.46l439.66,0" />
          <path d="M-77646.73,56817.46l429.66,0" />
          <path d="M-76877.07,57522.28l-360.66,0" />
          <path d="M-77233.51,57551l141.8,0" />
          <path d="M-77091.71,57551a28,28 0 0,1 20.4,8.82" />
          <circle r="24.9" cx="-77058.63" cy="57801.37" />
          <circle r="8" cx="-76933.8" cy="57802.25" />
          <circle r="15" cx="-76946.15" cy="57663.37" />
          <path d="M-77293.37,57571.93a56,56 0 0,1 55.64,-49.64" />
          <path d="M-77261.32,57575.83a28,28 0 0,1 27.82,-24.82" />
          <path d="M-76877.07,58082.28l-360.66,0" />
          <path d="M-77233.55,58053.2l142.18,0" />
          <path d="M-77233.55,58053.2a28,28 0 0,1 -27.82,-24.83" />
          <path d="M-77070.94,58044.35a28,28 0 0,1 -20.43,8.85" />
          <circle r="15" cx="-76946.15" cy="57941.2" />
          <path d="M-77237.73,58082.28a56,56 0 0,1 -55.64,-49.64" />
          <path d="M-77293.37,58032.64a2028.99,2028.99 0 0,1 0,-460.72" />
          <path d="M-76906.12,57892.09l0,-180" />
          <path d="M-76906.12,58082.28l0,-560" />
          <path d="M-76877.07,58082.28l0,-560" />
          <path d="M-77261.37,58028.37a1996.71,1996.71 0 0,1 0.04,-452.55" />
          <path d="M-77071.31,57559.82a353.92,353.92 0 0,1 0.37,484.53" />
          <path d="M-76906.12,57802.09l0,90" />
          <path d="M-80729.24,59432.25l0,-360.66" />
          <path d="M-80757.96,59075.81l0,141.8" />
          <path d="M-80757.96,59217.61a28,28 0 0,1 -8.82,20.4" />
          <circle r="24.9" cx="-81008.33" cy="59250.69" />
          <circle r="8" cx="-81009.21" cy="59375.52" />
          <circle r="15" cx="-80870.33" cy="59363.17" />
          <path d="M-80778.89,59015.95a56,56 0 0,1 49.64,55.64" />
          <path d="M-80782.79,59047.99a28,28 0 0,1 24.82,27.82" />
          <path d="M-81289.24,59432.25l0,-360.66" />
          <path d="M-81260.16,59075.77l0,142.18" />
          <path d="M-81260.16,59075.77a28,28 0 0,1 24.83,-27.82" />
          <path d="M-81251.31,59238.38a28,28 0 0,1 -8.85,-20.43" />
          <circle r="15" cx="-81148.16" cy="59363.17" />
          <path d="M-81289.24,59071.59a56,56 0 0,1 49.64,-55.64" />
          <path d="M-81239.6,59015.95a2028.99,2028.99 0 0,1 460.72,0" />
          <path d="M-81099.05,59403.2l180,0" />
          <path d="M-81289.24,59403.2l560,0" />
          <path d="M-81289.24,59432.25l560,0" />
          <path d="M-81235.33,59047.95a1996.71,1996.71 0 0,1 452.55,0.04" />
          <path d="M-80766.78,59238.01a353.92,353.92 0 0,1 -484.53,0.37" />
          <path d="M-81009.05,59403.2l-90,0" />
          <path d="M-79627.07,57513.08l1000,0" />
          <path d="M-79747.07,57393.08l1000,0" />
          <path d="M-78627.07,57513.08l0,-1025.84" />
          <path d="M-78747.07,57393.08l0,-905.84" />
          <path d="M-78627.07,56487.25l-120,0" />
          <path d="M-82562.15,58317.25l1075.08,0" />
          <path d="M-82562.15,58257.25l1075.08,0" />
          <path d="M-82562.15,58317.25l0,-60" />
          <path d="M-81487.07,58317.25l0,-60" />
          <path d="M-82562.07,57417.25l1075,0" />
          <path d="M-82562.07,57357.25l1075,0" />
          <path d="M-82562.07,57417.25l0,-60" />
          <path d="M-81487.07,57417.25l0,-60" />
          <path d="M-82562.07,56517.25l1075,0" />
          <path d="M-82562.07,56457.25l1075,0" />
          <path d="M-82562.07,56517.25l0,-60" />
          <path d="M-81487.07,56517.25l0,-60" />
          <path d="M-82562.15,55617.25l1075.08,0" />
          <path d="M-82562.07,55557.25l1075,0" />
          <path d="M-82562.15,55617.25l0.08,-60" />
          <path d="M-81487.07,55617.25l0,-60" />
          <path d="M-82562.15,54717.25l1075.08,0" />
          <path d="M-82562.15,54657.25l1075.08,0" />
          <path d="M-82562.15,54717.25l0,-60" />
          <path d="M-81487.07,54717.25l0,-60" />
          <path d="M-82562.15,53817.25l1075.08,0" />
          <path d="M-82562.07,53757.25l1075,0" />
          <path d="M-82562.15,53817.25l0.08,-60" />
          <path d="M-81487.07,53817.25l0,-60" />
          <path d="M-76877.07,53757.25l-1010,0" />
          <path d="M-76877.07,53817.25l-1010,0" />
          <path d="M-77887.07,53757.25l0,60" />
          <path d="M-76877.07,54657.25l-1010,0" />
          <path d="M-76877.07,54717.25l-1010,0" />
          <path d="M-77887.07,54657.25l0,60" />
          <path d="M-76877.07,55557.25l-1010,0" />
          <path d="M-76877.07,55617.25l-1010,0" />
          <path d="M-77887.07,55557.25l0,60" />
          <path d="M-76877.07,56457.25l-1010,0" />
          <path d="M-76877.07,56517.25l-1010,0" />
          <path d="M-77887.07,56457.25l0,60" />
          <path d="M-76877.07,57357.25l-1010,0" />
          <path d="M-76877.07,57417.25l-1010,0" />
          <path d="M-77887.07,57357.25l0,60" />
          <path d="M-78627.07,56487.25l0,-900" />
          <path d="M-78747.07,56487.25l0,-900" />
          <path d="M-78627.07,55587.25l-120,0" />
          <path d="M-79687.07,56517.25l940,0" />
          <path d="M-79687.07,56457.25l940,0" />
          <path d="M-79687.07,56517.25l0,-60" />
          <path d="M-78627.07,55587.25l0,-900" />
          <path d="M-78747.07,55587.25l0,-900" />
          <path d="M-78627.07,54687.25l-120,0" />
          <path d="M-79687.07,55617.25l940,0" />
          <path d="M-79687.07,55557.25l940,0" />
          <path d="M-79687.07,55617.25l0,-60" />
          <path d="M-78627.07,53787.25l0,-910" />
          <path d="M-78747.07,53787.25l0,-910" />
          <path d="M-78627.07,53787.25l-120,0" />
          <path d="M-79687.07,53817.25l1060,0" />
          <path d="M-79687.07,53757.25l940,0" />
          <path d="M-79687.07,53817.25l0,-60" />
          <path d="M-78627.07,54687.25l0,-900" />
          <path d="M-78747.07,54687.25l0,-870" />
          <path d="M-79687.07,54717.25l940,0" />
          <path d="M-79687.07,54657.25l940,0" />
          <path d="M-79687.07,54717.25l0,-60" />
          <path d="M-82512.07,58882.25l168.77,210.96" />
          <circle r="50" cx="-82312.07" cy="59132.25" />
          <path d="M-82343.31,59171.29l-168.77,210.96" />
          <path d="M-82112.07,59382.25l-400,0" />
          <path d="M-82512.07,59382.25l0,-500" />
          <path d="M-82512.07,58882.25l400,0" />
          <path d="M-82112.07,58882.25l0,500" />
          <path d="M-82280.84,59171.29l168.77,210.96" />
          <path d="M-82112.07,58882.25l-168.77,210.96" />
          <path d="M-82062.07,59432.25l-500,0" />
          <path d="M-82562.07,59432.25l0,-600" />
          <path d="M-82562.07,58832.25l500,0" />
          <path d="M-82062.07,58832.25l0,600" />
          <path d="M-81487.07,58257.25l0,-5380" />
          <path d="M-79747.07,57393.08l0,-4515.84" />
          <path d="M-77887.07,57357.25l0,-4480" />
          <path d="M-79627.07,59432.25l0,-1919.16" />
          <path d="M-64401.86,53217.25a40,40 0 0,1 40,-40" />
          <path d="M-64371.86,53217.25a10,10 0 0,1 10,-10" />
          <path d="M-64162.29,53177.25a40,40 0 0,1 40,40" />
          <path d="M-64162.29,53207.25a10,10 0 0,1 10,10" />
          <path d="M-64361.86,53207.25l199.57,0" />
          <path d="M-64361.86,53177.25l199.57,0" />
          <path d="M-64232.29,53766.9l-59.57,0" />
          <path d="M-64122.29,53656.9a110,110 0 0,1 -110,110" />
          <path d="M-64401.86,53646.9l279.57,0" />
          <path d="M-64291.86,53766.9a110,110 0 0,1 -110,-110" />
          <path d="M-64122.29,53217.25l0,439.66" />
          <path d="M-64152.29,53217.25l0,429.66" />
          <path d="M-64401.86,53656.9l0,-439.66" />
          <path d="M-64371.86,53646.9l0,-429.66" />
          <path d="M-65301.86,53217.25a40,40 0 0,1 40,-40" />
          <path d="M-65271.86,53217.25a10,10 0 0,1 10,-10" />
          <path d="M-65062.29,53177.25a40,40 0 0,1 40,40" />
          <path d="M-65062.29,53207.25a10,10 0 0,1 10,10" />
          <path d="M-65261.86,53207.25l199.57,0" />
          <path d="M-65261.86,53177.25l199.57,0" />
          <path d="M-65132.29,53766.9l-59.57,0" />
          <path d="M-65022.29,53656.9a110,110 0 0,1 -110,110" />
          <path d="M-65301.86,53646.9l279.57,0" />
          <path d="M-65191.86,53766.9a110,110 0 0,1 -110,-110" />
          <path d="M-65022.29,53217.25l0,439.66" />
          <path d="M-65052.29,53217.25l0,429.66" />
          <path d="M-65301.86,53656.9l0,-439.66" />
          <path d="M-65271.86,53646.9l0,-429.66" />
          <path d="M-66201.86,53217.25a40,40 0 0,1 40,-40" />
          <path d="M-66171.86,53217.25a10,10 0 0,1 10,-10" />
          <path d="M-65962.29,53177.25a40,40 0 0,1 40,40" />
          <path d="M-65962.29,53207.25a10,10 0 0,1 10,10" />
          <path d="M-66161.86,53207.25l199.57,0" />
          <path d="M-66161.86,53177.25l199.57,0" />
          <path d="M-66032.29,53766.9l-59.57,0" />
          <path d="M-65922.29,53656.9a110,110 0 0,1 -110,110" />
          <path d="M-66201.86,53646.9l279.57,0" />
          <path d="M-66091.86,53766.9a110,110 0 0,1 -110,-110" />
          <path d="M-65922.29,53217.25l0,439.66" />
          <path d="M-65952.29,53217.25l0,429.66" />
          <path d="M-66201.86,53656.9l0,-439.66" />
          <path d="M-66171.86,53646.9l0,-429.66" />
          <path d="M-67101.86,53217.25a40,40 0 0,1 40,-40" />
          <path d="M-67071.86,53217.25a10,10 0 0,1 10,-10" />
          <path d="M-66862.29,53177.25a40,40 0 0,1 40,40" />
          <path d="M-66862.29,53207.25a10,10 0 0,1 10,10" />
          <path d="M-67061.86,53207.25l199.57,0" />
          <path d="M-67061.86,53177.25l199.57,0" />
          <path d="M-66932.29,53766.9l-59.57,0" />
          <path d="M-66822.29,53656.9a110,110 0 0,1 -110,110" />
          <path d="M-67101.86,53646.9l279.57,0" />
          <path d="M-66991.86,53766.9a110,110 0 0,1 -110,-110" />
          <path d="M-66822.29,53217.25l0,439.66" />
          <path d="M-66852.29,53217.25l0,429.66" />
          <path d="M-67101.86,53656.9l0,-439.66" />
          <path d="M-67071.86,53646.9l0,-429.66" />
          <path d="M-67437.07,56162.25l0,3270" />
          <path d="M-67317.07,56162.25l0,3270" />
          <path d="M-67437.07,56162.25l120,0" />
          <path d="M-67437.07,54954.75l0,1207.5" />
          <path d="M-67377.07,54954.75l0,1207.5" />
          <path d="M-67437.07,54954.75l60,0" />
          <path d="M-67437.07,56162.25l60,0" />
          <path d="M-66507.07,56102.25l-870,0" />
          <path d="M-66507.07,56222.25l-810,0" />
          <path d="M-66507.07,56102.25l0,120" />
          <path d="M-66537.07,54954.75l0,1207.5" />
          <path d="M-66477.07,54954.75l0,1207.5" />
          <path d="M-66537.07,54954.75l60,0" />
          <path d="M-66537.07,56162.25l60,0" />
          <path d="M-65607.07,56102.25l-870,0" />
          <path d="M-65607.07,56222.25l-900,0" />
          <path d="M-65607.07,56102.25l0,120" />
          <path d="M-65637.07,54954.75l0,1207.5" />
          <path d="M-65577.07,54954.75l0,1207.5" />
          <path d="M-65637.07,54954.75l60,0" />
          <path d="M-65637.07,56162.25l60,0" />
          <path d="M-63812.8,56102.25l-894.27,0" />
          <path d="M-63812.77,56222.28l-894.3,-0.03" />
          <path d="M-63812.8,56102.25l0.03,120.03" />
          <path d="M-64707.07,56102.25l0,120" />
          <path d="M-64737.07,54954.75l0,1267.5" />
          <path d="M-64677.07,54954.75l0,1147.5" />
          <path d="M-64737.07,54954.75l60,0" />
          <path d="M-64737.07,52877.25l0,1200" />
          <path d="M-64677.07,52877.25l0,1200" />
          <path d="M-64737.07,54077.25l60,0" />
          <path d="M-65637.07,52877.25l0,1200" />
          <path d="M-65577.07,52877.25l0,1200" />
          <path d="M-65637.07,54077.25l60,0" />
          <path d="M-66537.07,52877.25l0,1200" />
          <path d="M-66477.07,52877.25l0,1200" />
          <path d="M-66537.07,54077.25l60,0" />
          <path d="M-67437.07,52877.25l0,1200" />
          <path d="M-67377.07,52877.25l0,1200" />
          <path d="M-67437.07,54077.25l60,0" />
          <path d="M-66787.29,55762.25a40,40 0 0,1 -40,40" />
          <path d="M-66817.29,55762.25a10,10 0 0,1 -10,10" />
          <path d="M-67026.86,55802.25a40,40 0 0,1 -40,-40" />
          <path d="M-67026.86,55772.25a10,10 0 0,1 -10,-10" />
          <path d="M-66827.29,55772.25l-199.57,0" />
          <path d="M-66827.29,55802.25l-199.57,0" />
          <path d="M-66956.86,55212.59l59.57,0" />
          <path d="M-67066.86,55322.59a110,110 0 0,1 110,-110" />
          <path d="M-66787.29,55332.59l-279.57,0" />
          <path d="M-66897.29,55212.59a110,110 0 0,1 110,110" />
          <path d="M-67066.86,55762.25l0,-439.66" />
          <path d="M-67036.86,55762.25l0,-429.66" />
          <path d="M-66787.29,55322.59l0,439.66" />
          <path d="M-66817.29,55332.59l0,429.66" />
          <path d="M-65887.29,55762.25a40,40 0 0,1 -40,40" />
          <path d="M-65917.29,55762.25a10,10 0 0,1 -10,10" />
          <path d="M-66126.86,55802.25a40,40 0 0,1 -40,-40" />
          <path d="M-66126.86,55772.25a10,10 0 0,1 -10,-10" />
          <path d="M-65927.29,55772.25l-199.57,0" />
          <path d="M-65927.29,55802.25l-199.57,0" />
          <path d="M-66056.86,55212.59l59.57,0" />
          <path d="M-66166.86,55322.59a110,110 0 0,1 110,-110" />
          <path d="M-65887.29,55332.59l-279.57,0" />
          <path d="M-65997.29,55212.59a110,110 0 0,1 110,110" />
          <path d="M-66166.86,55762.25l0,-439.66" />
          <path d="M-66136.86,55762.25l0,-429.66" />
          <path d="M-65887.29,55322.59l0,439.66" />
          <path d="M-65917.29,55332.59l0,429.66" />
          <path d="M-64987.29,55762.25a40,40 0 0,1 -40,40" />
          <path d="M-65017.29,55762.25a10,10 0 0,1 -10,10" />
          <path d="M-65226.86,55802.25a40,40 0 0,1 -40,-40" />
          <path d="M-65226.86,55772.25a10,10 0 0,1 -10,-10" />
          <path d="M-65027.29,55772.25l-199.57,0" />
          <path d="M-65027.29,55802.25l-199.57,0" />
          <path d="M-65156.86,55212.59l59.57,0" />
          <path d="M-65266.86,55322.59a110,110 0 0,1 110,-110" />
          <path d="M-64987.29,55332.59l-279.57,0" />
          <path d="M-65097.29,55212.59a110,110 0 0,1 110,110" />
          <path d="M-65266.86,55762.25l0,-439.66" />
          <path d="M-65236.86,55762.25l0,-429.66" />
          <path d="M-64987.29,55322.59l0,439.66" />
          <path d="M-65017.29,55332.59l0,429.66" />
          <path d="M-64087.29,55762.25a40,40 0 0,1 -40,40" />
          <path d="M-64117.29,55762.25a10,10 0 0,1 -10,10" />
          <path d="M-64326.86,55802.25a40,40 0 0,1 -40,-40" />
          <path d="M-64326.86,55772.25a10,10 0 0,1 -10,-10" />
          <path d="M-64127.29,55772.25l-199.57,0" />
          <path d="M-64127.29,55802.25l-199.57,0" />
          <path d="M-64256.86,55212.59l59.57,0" />
          <path d="M-64366.86,55322.59a110,110 0 0,1 110,-110" />
          <path d="M-64087.29,55332.59l-279.57,0" />
          <path d="M-64197.29,55212.59a110,110 0 0,1 110,110" />
          <path d="M-64366.86,55762.25l0,-439.66" />
          <path d="M-64336.86,55762.25l0,-429.66" />
          <path d="M-64087.29,55322.59l0,439.66" />
          <path d="M-64117.29,55332.59l0,429.66" />
          <path d="M-67317.07,59032.25l0,400" />
          <path d="M-67257.07,59032.25l0,400" />
          <path d="M-67317.07,59032.25l2855,0" />
          <path d="M-67257.07,59282.25l3045,0" />
          <path d="M-67257.07,56622.25l0,-400" />
          <path d="M-67317.07,56622.25l0,-400" />
          <path d="M-64462.07,56622.25l-2855,0" />
          <path d="M-64212.07,56372.25l-3045,0" />
          <path d="M-64212.07,58782.25l0,-1910" />
          <path d="M-63962.07,59032.25l0,-2410" />
          <path d="M-64462.07,56622.25a250,250 0 0,1 250,250" />
          <path d="M-64212.07,58782.25a250,250 0 0,1 -250,250" />
          <path d="M-64212.07,56372.25a250,250 0 0,1 250,250" />
          <path d="M-63962.07,59032.25a250,250 0 0,1 -250,250" />
          <path d="M-64737.07,56102.25l-840,0" />
          <path d="M-64707.07,56222.25l-900,0" />
          <path d="M-67257.07,59132.13l150.11,150.11" />
          <path d="M-67180.18,59032.25l250,250" />
          <path d="M-67003.41,59032.25l250,250" />
          <path d="M-66826.63,59032.25l250,250" />
          <path d="M-66649.85,59032.25l250,250" />
          <path d="M-66473.08,59032.25l250,250" />
          <path d="M-66296.3,59032.25l250,250" />
          <path d="M-66119.52,59032.25l250,250" />
          <path d="M-65942.75,59032.25l250,250" />
          <path d="M-65765.97,59032.25l250,250" />
          <path d="M-65589.19,59032.25l250,250" />
          <path d="M-65412.42,59032.25l250,250" />
          <path d="M-65235.64,59032.25l250,250" />
          <path d="M-65058.86,59032.25l250,250" />
          <path d="M-64882.09,59032.25l250,250" />
          <path d="M-67257.07,56480.48l141.77,141.77" />
          <path d="M-64705.31,59032.25l250,250" />
          <path d="M-67188.53,56372.25l250,250" />
          <path d="M-64528.53,59032.25l250,250" />
          <path d="M-67011.75,56372.25l250,250" />
          <path d="M-64369.52,59014.48l250,250" />
          <path d="M-66834.98,56372.25l250,250" />
          <path d="M-64267.73,58939.5l250,250" />
          <path d="M-66658.2,56372.25l250,250" />
          <path d="M-64214.37,58816.07l250,250" />
          <path d="M-66481.42,56372.25l250,250" />
          <path d="M-64212.07,58641.6l250,250" />
          <path d="M-66304.65,56372.25l250,250" />
          <path d="M-64212.07,58464.82l250,250" />
          <path d="M-66127.87,56372.25l250,250" />
          <path d="M-64212.07,58288.04l250,250" />
          <path d="M-65951.09,56372.25l250,250" />
          <path d="M-64212.07,58111.27l250,250" />
          <path d="M-65774.32,56372.25l250,250" />
          <path d="M-64212.07,57934.49l250,250" />
          <path d="M-65597.54,56372.25l250,250" />
          <path d="M-64212.07,57757.71l250,250" />
          <path d="M-65420.76,56372.25l250,250" />
          <path d="M-64212.07,57580.94l250,250" />
          <path d="M-65243.99,56372.25l250,250" />
          <path d="M-64212.07,57404.16l250,250" />
          <path d="M-65067.21,56372.25l250,250" />
          <path d="M-64212.07,57227.38l250,250" />
          <path d="M-64890.43,56372.25l250,250" />
          <path d="M-64212.07,57050.61l250,250" />
          <path d="M-64713.66,56372.25l250,250" />
          <path d="M-64212.07,56873.83l250,250" />
          <path d="M-64536.88,56372.25l574.81,574.81" />
          <path d="M-64360.1,56372.25l398.03,398.03" />
          <path d="M-64181.44,56374.13l217.48,217.48" />
          <path d="M-67243.16,56372.25l-13.92,13.92" />
          <path d="M-67066.38,56372.25l-190.7,190.7" />
          <path d="M-66889.6,56372.25l-250,250" />
          <path d="M-66712.83,56372.25l-250,250" />
          <path d="M-66536.05,56372.25l-250,250" />
          <path d="M-66359.27,56372.25l-250,250" />
          <path d="M-66182.5,56372.25l-250,250" />
          <path d="M-66005.72,56372.25l-250,250" />
          <path d="M-65828.94,56372.25l-250,250" />
          <path d="M-65652.17,56372.25l-250,250" />
          <path d="M-65475.39,56372.25l-250,250" />
          <path d="M-65298.61,56372.25l-250,250" />
          <path d="M-65121.84,56372.25l-250,250" />
          <path d="M-64945.06,56372.25l-250,250" />
          <path d="M-64768.28,56372.25l-250,250" />
          <path d="M-64591.51,56372.25l-250,250" />
          <path d="M-67251.5,59032.25l-5.57,5.57" />
          <path d="M-64414.73,56372.25l-250,250" />
          <path d="M-67074.73,59032.25l-182.35,182.35" />
          <path d="M-64237.95,56372.25l-250,250" />
          <path d="M-66897.95,59032.25l-250,250" />
          <path d="M-64091.93,56403.01l-250,250" />
          <path d="M-66721.17,59032.25l-250,250" />
          <path d="M-64000.78,56488.63l-250,250" />
          <path d="M-66544.39,59032.25l-250,250" />
          <path d="M-63962.07,56626.7l-250,250" />
          <path d="M-66367.62,59032.25l-250,250" />
          <path d="M-63962.07,56803.48l-250,250" />
          <path d="M-66190.84,59032.25l-250,250" />
          <path d="M-63962.07,56980.25l-250,250" />
          <path d="M-66014.06,59032.25l-250,250" />
          <path d="M-63962.07,57157.03l-250,250" />
          <path d="M-65837.29,59032.25l-250,250" />
          <path d="M-63962.07,57333.81l-250,250" />
          <path d="M-65660.51,59032.25l-250,250" />
          <path d="M-63962.07,57510.58l-250,250" />
          <path d="M-65483.73,59032.25l-250,250" />
          <path d="M-63962.07,57687.36l-250,250" />
          <path d="M-65306.96,59032.25l-250,250" />
          <path d="M-63962.07,57864.14l-250,250" />
          <path d="M-65130.18,59032.25l-250,250" />
          <path d="M-63962.07,58040.91l-250,250" />
          <path d="M-64953.4,59032.25l-250,250" />
          <path d="M-63962.07,58217.69l-250,250" />
          <path d="M-64776.63,59032.25l-250,250" />
          <path d="M-63962.07,58394.47l-250,250" />
          <path d="M-64599.85,59032.25l-250,250" />
          <path d="M-63962.07,58571.24l-253.67,253.67" />
          <path d="M-64419.41,59028.58l-253.67,253.67" />
          <path d="M-63962.07,58748.02l-534.22,534.22" />
          <path d="M-63962.07,58924.8l-357.45,357.45" />
          <path d="M-63976.53,59116.03l-151.75,151.75" />
          <path d="M-69497.07,58002.98l360.66,0" />
          <path d="M-69140.64,57974.26l-141.8,0" />
          <path d="M-69282.44,57974.26a28,28 0 0,1 -20.4,-8.82" />
          <circle r="24.9" cx="-69315.52" cy="57723.89" />
          <circle r="8" cx="-69440.35" cy="57723.01" />
          <circle r="15" cx="-69428" cy="57861.9" />
          <path d="M-69080.78,57953.34a56,56 0 0,1 -55.64,49.64" />
          <path d="M-69112.82,57949.44a28,28 0 0,1 -27.82,24.82" />
          <path d="M-69497.07,57442.98l360.66,0" />
          <path d="M-69140.6,57472.06l-142.18,0" />
          <path d="M-69140.6,57472.06a28,28 0 0,1 27.82,24.83" />
          <path d="M-69303.21,57480.91a28,28 0 0,1 20.43,-8.85" />
          <circle r="15" cx="-69428" cy="57584.06" />
          <path d="M-69136.42,57442.98a56,56 0 0,1 55.64,49.64" />
          <path d="M-69080.78,57492.62a2028.99,2028.99 0 0,1 0,460.72" />
          <path d="M-69468.03,57633.17l0,180" />
          <path d="M-69468.03,57442.98l0,560" />
          <path d="M-69497.07,57442.98l0,560" />
          <path d="M-69112.78,57496.89a1996.71,1996.71 0 0,1 -0.04,452.55" />
          <path d="M-69302.84,57965.44a353.92,353.92 0 0,1 -0.37,-484.53" />
          <path d="M-69468.03,57723.17l0,-90" />
          <path d="M-69497.07,55366.91l360.66,0" />
          <path d="M-69140.64,55338.19l-141.8,0" />
          <path d="M-69282.44,55338.19a28,28 0 0,1 -20.4,-8.82" />
          <circle r="24.9" cx="-69315.52" cy="55087.82" />
          <circle r="8" cx="-69440.35" cy="55086.94" />
          <circle r="15" cx="-69428" cy="55225.82" />
          <path d="M-69080.78,55317.26a56,56 0 0,1 -55.64,49.64" />
          <path d="M-69112.82,55313.36a28,28 0 0,1 -27.82,24.82" />
          <path d="M-69497.07,54806.91l360.66,0" />
          <path d="M-69140.6,54835.99l-142.18,0" />
          <path d="M-69140.6,54835.99a28,28 0 0,1 27.82,24.83" />
          <path d="M-69303.21,54844.84a28,28 0 0,1 20.43,-8.85" />
          <circle r="15" cx="-69428" cy="54947.99" />
          <path d="M-69136.42,54806.91a56,56 0 0,1 55.64,49.64" />
          <path d="M-69080.78,54856.55a2028.99,2028.99 0 0,1 0,460.72" />
          <path d="M-69468.03,54997.1l0,180" />
          <path d="M-69468.03,54806.91l0,560" />
          <path d="M-69497.07,54806.91l0,560" />
          <path d="M-69112.78,54860.82a1996.71,1996.71 0 0,1 -0.04,452.55" />
          <path d="M-69302.84,55329.37a353.92,353.92 0 0,1 -0.37,-484.53" />
          <path d="M-69468.03,55087.1l0,-90" />
          <path d="M-67377.07,54954.75l3289.78,0" />
          <path d="M-64087.29,54954.75l275.22,0" />
          <path d="M-67377.07,54077.25l3565,0" />
        </g>
        <g id="layer-rm" class="rm">
          <path d="M-33567.07,61432.25l1760,0l0,-4125l-1760,0z" />
          <path d="M-119627.07,57067.25l4820,0l0,-4190l-4820,0z" />
          <path d="M-119627.07,49497.25l4820,0l0,-4190l-4820,0z" />
          <path d="M-80812.07,49497.25l-4250,0l0,-5555l4250,0z" />
          <path d="M-107562.07,49497.25l4250,0l0,-5555l-4250,0z" />
          <path d="M-31567.07,61432.25l4820,0l0,-5412.67l-4820,0z" />
          <path d="M-33567.07,40942.25l1760,0l0,2705.86l-1760,0z" />
        </g>
      </g>
      <g id="assets" fill="none">
        <g id="rm-assets" class="rm-asset">
          <path d="M-65562.07,49497.25l8750,0l0,-5555l-8750,0z" id="C02;03;319" />
          <path d="M-63563.5,59432.25l11755,0l0,-6555l-11755,0z" id="C02;03;306" />
          <path d="M-38432.07,61432.25l4625,0l0,-8555l-4625,0z" id="C02;03;304" />
          <path d="M-31572.07,49702.25l4825,0l0,-4260l-4825,0z" id="C02;03;301" />
          <path d="M-38432.07,49497.25l0,-8555l4625,0l0,4125l0,0l0,4430z" id="C02;03;322" />
          <path d="M-56562.07,49497.25l8750,0l0,-5555l-8750,0z" id="C02;03;320" />
          <path d="M-47562.07,49497.25l8750,0l0,-5555l-8750,0z" id="C02;03;321" />
          <path d="M-69497.07,49497.25l3685,0l0,-5555l-3685,0z" id="C02;03;318" />
          <path d="M-103567.07,59432.25l8760,0l0,-6555l-8760,0z" id="C02;03;309" />
          <path d="M-85572.07,59432.25l2760,0l0,-6555l-2760,0z" id="C02;03;307" />
          <path d="M-114567.07,49497.25l0,-4430l-5060,0l0,-4125l11685,0l0,8555l-6625,0z" id="C02;03;311" />
          <path d="M-80562.07,49497.25l3685,0l0,-5555l-3685,0z" id="C02;03;316" />
          <path d="M-89562.07,49497.25l4250,0l0,-5555l-4250,0z" id="C02;03;315" />
          <path d="M-51567.07,59432.25l8760,0l0,-6555l-8760,0z" id="C02;03;305" />
          <path d="M-114567.07,52877.25l0,4430l-5060,0l0,4125l11685,0l0,-8555l-6625,0z" id="C02;03;310" />
          <path d="M-76497.07,49497.25l6620,0l0,-5555l-6620,0z" id="C02;03;317" />
          <path d="M-31572.07,45202.25l4825,0l0,-4260l-4825,0z" id="C02;03;302" />
          <path d="M-98562.07,49497.25l4250,0l0,-5555l-4250,0z" id="C02;03;313" />
          <path d="M-89812.07,49497.25l-4250,0l0,-5555l4250,0z" id="C02;03;314" />
          <path d="M-98812.07,49497.25l-4250,0l0,-5555l4250,0z" id="C02;03;312" />
          <path d="M-85812.07,59432.25l-8755,0l0,-6555l8755,0z" id="C02;03;308" />
          <path d="M-26747.07,55779.58l0,-5837.33l-4820,0l0,5837.33l4820,0z" id="C02;03;303" />
        </g>
      </g>
    </g>
    <g id="asset-labels" font-family="Arial" font-weight="bold" font-size="1.5em" text-anchor="middle">
      <g id="rm-labels">
        <g id="l-rm-C02;03;319" transform="translate(-61187.07,-46723.18)">
          <text>319</text>
        </g>
        <g id="l-rm-C02;03;306" transform="translate(-57686,-56158.18)">
          <text>306</text>
        </g>
        <g id="l-rm-C02;03;304" transform="translate(-36119.57,-57158.18)">
          <text>304</text>
        </g>
        <g id="l-rm-C02;03;301" transform="translate(-29159.57,-47575.68)">
          <text>301</text>
        </g>
        <g id="l-rm-C02;03;322" transform="translate(-36119.57,-45223.18)">
          <text>322</text>
        </g>
        <g id="l-rm-C02;03;320" transform="translate(-52187.07,-46723.18)">
          <text>320</text>
        </g>
        <g id="l-rm-C02;03;321" transform="translate(-43187.07,-46723.18)">
          <text>321</text>
        </g>
        <g id="l-rm-C02;03;318" transform="translate(-67654.57,-46723.18)">
          <text>318</text>
        </g>
        <g id="l-rm-C02;03;309" transform="translate(-99187.07,-56158.18)">
          <text>309</text>
        </g>
        <g id="l-rm-C02;03;307" transform="translate(-84192.07,-56158.18)">
          <text>307</text>
        </g>
        <g id="l-rm-C02;03;311" transform="translate(-113784.57,-45222.03)">
          <text>311</text>
        </g>
        <g id="l-rm-C02;03;316" transform="translate(-78719.57,-46723.18)">
          <text>316</text>
        </g>
        <g id="l-rm-C02;03;315" transform="translate(-87437.07,-46723.18)">
          <text>315</text>
        </g>
        <g id="l-rm-C02;03;305" transform="translate(-47187.07,-56158.18)">
          <text>305</text>
        </g>
        <g id="l-rm-C02;03;310" transform="translate(-113784.57,-57157.03)">
          <text>310</text>
        </g>
        <g id="l-rm-C02;03;317" transform="translate(-73187.07,-46723.18)">
          <text>317</text>
        </g>
        <g id="l-rm-C02;03;302" transform="translate(-29159.57,-43075.68)">
          <text>302</text>
        </g>
        <g id="l-rm-C02;03;313" transform="translate(-96437.07,-46723.18)">
          <text>313</text>
        </g>
        <g id="l-rm-C02;03;314" transform="translate(-91937.07,-46723.18)">
          <text>314</text>
        </g>
        <g id="l-rm-C02;03;312" transform="translate(-100937.07,-46723.18)">
          <text>312</text>
        </g>
        <g id="l-rm-C02;03;308" transform="translate(-90189.57,-56158.18)">
          <text>308</text>
        </g>
        <g id="l-rm-C02;03;303" transform="translate(-29157.07,-52864.34)">
          <text>303</text>
        </g>
      </g>
    </g>
  </g>
</svg>