<svg version="1.1" xmlns="http://www.w3.org/2000/svg" xmlns:xlink="http://www.w3.org/1999/xlink" viewBox="588.56 80527.84 98819 27283">
  <style>.i0 { stroke:#000000; } .wa { stroke:#cc6600; } .dr { stroke:#ff0000; } .stair { stroke:#00994c; } .toilet { stroke:#00ff00; } .defpoints { stroke:#000000; } .gros { stroke:#ff00ff; } .wm { stroke:#ff7f00; } .rm { stroke:#00ffff; } .rm-asset { stroke:#0000ff; } .rmtc-asset { stroke:#0000ff; } .rmtc { stroke:#00ffff; } .rm-assettxt { stroke:#0000ff; } .rmtc-assettxt { stroke:#0000ff; }</style>
  <view id="defaultView" viewBox="588.56 80527.84 98819 27283" />
  <defs />
  <g id="viewer">
    <g id="mirror" transform="scale(1, -1)" stroke-width="0.09%">
      <g id="background" fill="none">
        <g id="layer-wm" class="wm">
          <path d="M15357.32,-100863.43l380,0" />
          <path d="M15737.32,-102863.43l-380,0" />
          <path d="M15610.66,-100863.43l0,-2000" />
          <path d="M15483.99,-100863.43l0,-2000" />
          <path d="M15737.32,-102863.43l0,2000" />
          <path d="M46079.82,-100988.38l0,380" />
          <path d="M44079.82,-100608.38l0,-380" />
          <path d="M46079.82,-100735.05l-2000,0" />
          <path d="M46079.82,-100861.72l-2000,0" />
          <path d="M44079.82,-100988.38l2000,0" />
          <path d="M44079.82,-100608.38l2000,0" />
          <path d="M29112.32,-84738.38l0,-380" />
          <path d="M31112.32,-85118.38l0,380" />
          <path d="M29112.32,-84991.72l2000,0" />
          <path d="M29112.32,-84865.05l2000,0" />
          <path d="M31112.32,-84738.38l-2000,0" />
          <path d="M31112.32,-85118.38l-2000,0" />
          <path d="M32112.32,-84738.38l0,-380" />
          <path d="M34112.32,-85118.38l0,380" />
          <path d="M32112.32,-84991.72l2000,0" />
          <path d="M32112.32,-84865.05l2000,0" />
          <path d="M34112.32,-84738.38l-2000,0" />
          <path d="M34112.32,-85118.38l-2000,0" />
          <path d="M35112.32,-84738.38l0,-380" />
          <path d="M37112.32,-85118.38l0,380" />
          <path d="M35112.32,-84991.72l2000,0" />
          <path d="M35112.32,-84865.05l2000,0" />
          <path d="M37112.32,-84738.38l-2000,0" />
          <path d="M37112.32,-85118.38l-2000,0" />
          <path d="M38112.32,-84738.38l0,-380" />
          <path d="M40112.32,-85118.38l0,380" />
          <path d="M38112.32,-84991.72l2000,0" />
          <path d="M38112.32,-84865.05l2000,0" />
          <path d="M40112.32,-84738.38l-2000,0" />
          <path d="M40112.32,-85118.38l-2000,0" />
          <path d="M16614.82,-84738.38l0,-380" />
          <path d="M18614.82,-85118.38l0,380" />
          <path d="M16614.82,-84991.72l2000,0" />
          <path d="M16614.82,-84865.05l2000,0" />
          <path d="M18614.82,-84738.38l-2000,0" />
          <path d="M20112.32,-84738.38l0,-380" />
          <path d="M22112.32,-85118.38l0,380" />
          <path d="M20112.32,-84991.72l2000,0" />
          <path d="M20112.32,-84865.05l2000,0" />
          <path d="M22112.32,-84738.38l-2000,0" />
          <path d="M22112.32,-85118.38l-2000,0" />
          <path d="M23112.32,-84738.38l0,-380" />
          <path d="M25112.32,-85118.38l0,380" />
          <path d="M23112.32,-84991.72l2000,0" />
          <path d="M23112.32,-84865.05l2000,0" />
          <path d="M25112.32,-84738.38l-2000,0" />
          <path d="M25112.32,-85118.38l-2000,0" />
          <path d="M26112.32,-84738.38l0,-380" />
          <path d="M28112.32,-85118.38l0,380" />
          <path d="M26112.32,-84991.72l2000,0" />
          <path d="M26112.32,-84865.05l2000,0" />
          <path d="M28112.32,-84738.38l-2000,0" />
          <path d="M28112.32,-85118.38l-2000,0" />
          <path d="M7242.32,-103988.38l0,380" />
          <path d="M5242.32,-103608.38l0,-380" />
          <path d="M7242.32,-103735.05l-2000,0" />
          <path d="M7242.32,-103861.72l-2000,0" />
          <path d="M5242.32,-103988.38l2000,0" />
          <path d="M5242.32,-103608.38l2000,0" />
          <path d="M12237.32,-82738.38l0,-380" />
          <path d="M14237.32,-83118.38l0,380" />
          <path d="M12237.32,-82991.72l2000,0" />
          <path d="M12237.32,-82865.05l2000,0" />
          <path d="M14237.32,-82738.38l-2000,0" />
          <path d="M14237.32,-83118.38l-2000,0" />
          <path d="M3422.32,-87043.38l250,0" />
          <path d="M3672.32,-85043.38l-250,0" />
          <path d="M3588.99,-87043.38l0,2000" />
          <path d="M3505.66,-87043.38l0,2000" />
          <path d="M3422.32,-85043.38l0,-2000" />
          <path d="M3672.32,-85043.38l0,-2000" />
          <path d="M3422.32,-94363.38l250,0" />
          <path d="M3672.32,-92363.38l-250,0" />
          <path d="M3588.99,-94363.38l0,2000" />
          <path d="M3505.66,-94363.38l0,2000" />
          <path d="M3422.32,-92363.38l0,-2000" />
          <path d="M3672.32,-92363.38l0,-2000" />
          <path d="M3672.32,-98113.38l-250,0" />
          <path d="M3422.32,-96113.38l250,0" />
          <path d="M3505.66,-98113.38l0,2000" />
          <path d="M3588.99,-98113.38l0,2000" />
          <path d="M3672.32,-96113.38l0,-2000" />
          <path d="M3422.32,-96113.38l0,-2000" />
          <path d="M14169.82,-103608.38l0,-380" />
          <path d="M12169.82,-103988.38l0,380" />
          <path d="M14169.82,-103861.72l-2000,0" />
          <path d="M14169.82,-103735.05l-2000,0" />
          <path d="M12169.82,-103988.38l2000,0" />
          <path d="M3672.32,-101800.66l-250,0" />
          <path d="M3422.32,-99800.66l250,0" />
          <path d="M3505.66,-101800.66l0,2000" />
          <path d="M3588.99,-101800.66l0,2000" />
          <path d="M3672.32,-99800.66l0,-2000" />
          <path d="M3422.32,-99800.66l0,-2000" />
          <path d="M3422.32,-90613.38l250,0" />
          <path d="M3672.32,-88613.38l-250,0" />
          <path d="M3588.99,-90613.38l0,2000" />
          <path d="M3505.66,-90613.38l0,2000" />
          <path d="M3422.32,-88613.38l0,-2000" />
          <path d="M3672.32,-88613.38l0,-2000" />
          <path d="M5242.32,-83118.38l0,380" />
          <path d="M7242.32,-82738.38l0,-380" />
          <path d="M5242.32,-82865.05l2000,0" />
          <path d="M5242.32,-82991.72l2000,0" />
          <path d="M7242.32,-83118.38l-2000,0" />
          <path d="M7242.32,-82738.38l-2000,0" />
          <path d="M8481.3,-82738.38l0,-380" />
          <path d="M10481.3,-83118.38l0,380" />
          <path d="M8481.3,-82991.72l2000,0" />
          <path d="M8481.3,-82865.05l2000,0" />
          <path d="M10481.3,-82738.38l-2000,0" />
          <path d="M10481.3,-83118.38l-2000,0" />
          <path d="M18112.32,-100608.38l0,-380" />
          <path d="M16112.32,-100988.38l0,380" />
          <path d="M18112.32,-100861.72l-2000,0" />
          <path d="M18112.32,-100735.05l-2000,0" />
          <path d="M16112.32,-100608.38l2000,0" />
          <path d="M16112.32,-100988.38l2000,0" />
          <path d="M21112.32,-100608.38l0,-380" />
          <path d="M19112.32,-100988.38l0,380" />
          <path d="M21112.32,-100861.72l-2000,0" />
          <path d="M21112.32,-100735.05l-2000,0" />
          <path d="M19112.32,-100608.38l2000,0" />
          <path d="M19112.32,-100988.38l2000,0" />
          <path d="M24112.32,-100988.38l0,380" />
          <path d="M22112.32,-100608.38l0,-380" />
          <path d="M24112.32,-100735.05l-2000,0" />
          <path d="M24112.32,-100861.72l-2000,0" />
          <path d="M22112.32,-100988.38l2000,0" />
          <path d="M22112.32,-100608.38l2000,0" />
          <path d="M27112.32,-100608.38l0,-380" />
          <path d="M25112.32,-100988.38l0,380" />
          <path d="M27112.32,-100861.72l-2000,0" />
          <path d="M27112.32,-100735.05l-2000,0" />
          <path d="M25112.32,-100608.38l2000,0" />
          <path d="M25112.32,-100988.38l2000,0" />
          <path d="M30112.32,-100608.38l0,-380" />
          <path d="M28112.32,-100988.38l0,380" />
          <path d="M30112.32,-100861.72l-2000,0" />
          <path d="M30112.32,-100735.05l-2000,0" />
          <path d="M28112.32,-100608.38l2000,0" />
          <path d="M28112.32,-100988.38l2000,0" />
          <path d="M33112.32,-100988.38l0,380" />
          <path d="M31112.32,-100608.38l0,-380" />
          <path d="M33112.32,-100735.05l-2000,0" />
          <path d="M33112.32,-100861.72l-2000,0" />
          <path d="M31112.32,-100988.38l2000,0" />
          <path d="M31112.32,-100608.38l2000,0" />
          <path d="M36112.32,-100608.38l0,-380" />
          <path d="M34112.32,-100988.38l0,380" />
          <path d="M36112.32,-100861.72l-2000,0" />
          <path d="M36112.32,-100735.05l-2000,0" />
          <path d="M34112.32,-100608.38l2000,0" />
          <path d="M34112.32,-100988.38l2000,0" />
          <path d="M39112.32,-100608.38l0,-380" />
          <path d="M37112.32,-100988.38l0,380" />
          <path d="M39112.32,-100861.72l-2000,0" />
          <path d="M39112.32,-100735.05l-2000,0" />
          <path d="M37112.32,-100608.38l2000,0" />
          <path d="M37112.32,-100988.38l2000,0" />
          <path d="M42112.32,-100608.38l0,-380" />
          <path d="M40112.32,-100988.38l0,380" />
          <path d="M42112.32,-100861.72l-2000,0" />
          <path d="M42112.32,-100735.05l-2000,0" />
          <path d="M40112.32,-100608.38l2000,0" />
          <path d="M40112.32,-100988.38l2000,0" />
          <path d="M54144.82,-100988.38l0,380" />
          <path d="M56144.82,-100608.38l0,-380" />
          <path d="M54144.82,-100735.05l2000,0" />
          <path d="M54144.82,-100861.72l2000,0" />
          <path d="M56144.82,-100988.38l-2000,0" />
          <path d="M56144.82,-100608.38l-2000,0" />
          <path d="M83609.82,-84738.38l0,-380" />
          <path d="M81609.82,-85118.38l0,380" />
          <path d="M83609.82,-84991.72l-2000,0" />
          <path d="M83609.82,-84865.05l-2000,0" />
          <path d="M81609.82,-84738.38l2000,0" />
          <path d="M81609.82,-85118.38l2000,0" />
          <path d="M62112.32,-84738.38l0,-380" />
          <path d="M60112.32,-85118.38l0,380" />
          <path d="M62112.32,-84991.72l-2000,0" />
          <path d="M62112.32,-84865.05l-2000,0" />
          <path d="M60112.32,-84738.38l2000,0" />
          <path d="M60112.32,-85118.38l2000,0" />
          <path d="M65112.32,-84738.38l0,-380" />
          <path d="M63112.32,-85118.38l0,380" />
          <path d="M65112.32,-84991.72l-2000,0" />
          <path d="M65112.32,-84865.05l-2000,0" />
          <path d="M63112.32,-84738.38l2000,0" />
          <path d="M63112.32,-85118.38l2000,0" />
          <path d="M68112.32,-84738.38l0,-380" />
          <path d="M66112.32,-85118.38l0,380" />
          <path d="M68112.32,-84991.72l-2000,0" />
          <path d="M68112.32,-84865.05l-2000,0" />
          <path d="M66112.32,-84738.38l2000,0" />
          <path d="M66112.32,-85118.38l2000,0" />
          <path d="M71112.32,-84738.38l0,-380" />
          <path d="M69112.32,-85118.38l0,380" />
          <path d="M71112.32,-84991.72l-2000,0" />
          <path d="M71112.32,-84865.05l-2000,0" />
          <path d="M69112.32,-84738.38l2000,0" />
          <path d="M69112.32,-85118.38l2000,0" />
          <path d="M74112.32,-84738.38l0,-380" />
          <path d="M72112.32,-85118.38l0,380" />
          <path d="M74112.32,-84991.72l-2000,0" />
          <path d="M74112.32,-84865.05l-2000,0" />
          <path d="M72112.32,-84738.38l2000,0" />
          <path d="M72112.32,-85118.38l2000,0" />
          <path d="M77112.32,-84738.38l0,-380" />
          <path d="M75112.32,-85118.38l0,380" />
          <path d="M77112.32,-84991.72l-2000,0" />
          <path d="M77112.32,-84865.05l-2000,0" />
          <path d="M75112.32,-84738.38l2000,0" />
          <path d="M75112.32,-85118.38l2000,0" />
          <path d="M80112.32,-84738.38l0,-380" />
          <path d="M78112.32,-85118.38l0,380" />
          <path d="M80112.32,-84991.72l-2000,0" />
          <path d="M80112.32,-84865.05l-2000,0" />
          <path d="M78112.32,-84738.38l2000,0" />
          <path d="M78112.32,-85118.38l2000,0" />
          <path d="M84867.32,-100863.43l-380,0" />
          <path d="M84487.32,-102863.43l380,0" />
          <path d="M84613.99,-100863.43l0,-2000" />
          <path d="M84740.66,-100863.43l0,-2000" />
          <path d="M84867.32,-102863.43l0,2000" />
          <path d="M84487.32,-102863.43l0,2000" />
          <path d="M92982.32,-103988.38l0,380" />
          <path d="M94982.32,-103608.38l0,-380" />
          <path d="M92982.32,-103735.05l2000,0" />
          <path d="M92982.32,-103861.72l2000,0" />
          <path d="M94982.32,-103988.38l-2000,0" />
          <path d="M94982.32,-103608.38l-2000,0" />
          <path d="M86054.82,-103608.38l0,-380" />
          <path d="M88054.82,-103988.38l0,380" />
          <path d="M86054.82,-103861.72l2000,0" />
          <path d="M86054.82,-103735.05l2000,0" />
          <path d="M88054.82,-103608.38l-2000,0" />
          <path d="M88054.82,-103988.38l-2000,0" />
          <path d="M76112.32,-100988.38l0,380" />
          <path d="M78112.32,-100608.38l0,-380" />
          <path d="M76112.32,-100735.05l2000,0" />
          <path d="M76112.32,-100861.72l2000,0" />
          <path d="M78112.32,-100988.38l-2000,0" />
          <path d="M78112.32,-100608.38l-2000,0" />
          <path d="M79112.32,-100608.38l0,-380" />
          <path d="M81112.32,-100988.38l0,380" />
          <path d="M79112.32,-100861.72l2000,0" />
          <path d="M79112.32,-100735.05l2000,0" />
          <path d="M81112.32,-100608.38l-2000,0" />
          <path d="M81112.32,-100988.38l-2000,0" />
          <path d="M82112.32,-100608.38l0,-380" />
          <path d="M84112.32,-100988.38l0,380" />
          <path d="M82112.32,-100861.72l2000,0" />
          <path d="M82112.32,-100735.05l2000,0" />
          <path d="M84112.32,-100608.38l-2000,0" />
          <path d="M84112.32,-100988.38l-2000,0" />
          <path d="M73112.32,-100608.38l0,-380" />
          <path d="M75112.32,-100988.38l0,380" />
          <path d="M73112.32,-100861.72l2000,0" />
          <path d="M73112.32,-100735.05l2000,0" />
          <path d="M75112.32,-100608.38l-2000,0" />
          <path d="M75112.32,-100988.38l-2000,0" />
          <path d="M70112.32,-100608.38l0,-380" />
          <path d="M72112.32,-100988.38l0,380" />
          <path d="M70112.32,-100861.72l2000,0" />
          <path d="M70112.32,-100735.05l2000,0" />
          <path d="M72112.32,-100608.38l-2000,0" />
          <path d="M72112.32,-100988.38l-2000,0" />
          <path d="M67112.32,-100988.38l0,380" />
          <path d="M69112.32,-100608.38l0,-380" />
          <path d="M67112.32,-100735.05l2000,0" />
          <path d="M67112.32,-100861.72l2000,0" />
          <path d="M69112.32,-100988.38l-2000,0" />
          <path d="M69112.32,-100608.38l-2000,0" />
          <path d="M96802.32,-101800.66l-250,0" />
          <path d="M96552.32,-99800.66l250,0" />
          <path d="M96635.66,-101800.66l0,2000" />
          <path d="M96718.99,-101800.66l0,2000" />
          <path d="M96802.32,-99800.66l0,-2000" />
          <path d="M96552.32,-99800.66l0,-2000" />
          <path d="M96802.32,-98113.38l-250,0" />
          <path d="M96552.32,-96113.38l250,0" />
          <path d="M96635.66,-98113.38l0,2000" />
          <path d="M96718.99,-98113.38l0,2000" />
          <path d="M96802.32,-96113.38l0,-2000" />
          <path d="M96552.32,-96113.38l0,-2000" />
          <path d="M96802.32,-94363.38l-250,0" />
          <path d="M96552.32,-92363.38l250,0" />
          <path d="M96635.66,-94363.38l0,2000" />
          <path d="M96718.99,-94363.38l0,2000" />
          <path d="M96802.32,-92363.38l0,-2000" />
          <path d="M96552.32,-92363.38l0,-2000" />
          <path d="M96802.32,-87043.38l-250,0" />
          <path d="M96552.32,-85043.38l250,0" />
          <path d="M96635.66,-87043.38l0,2000" />
          <path d="M96718.99,-87043.38l0,2000" />
          <path d="M96802.32,-85043.38l0,-2000" />
          <path d="M96552.32,-85043.38l0,-2000" />
          <path d="M96802.32,-90613.38l-250,0" />
          <path d="M96552.32,-88613.38l250,0" />
          <path d="M96635.66,-90613.38l0,2000" />
          <path d="M96718.99,-90613.38l0,2000" />
          <path d="M96802.32,-88613.38l0,-2000" />
          <path d="M96552.32,-88613.38l0,-2000" />
          <path d="M85987.32,-83118.38l0,380" />
          <path d="M87987.32,-82738.38l0,-380" />
          <path d="M85987.32,-82865.05l2000,0" />
          <path d="M85987.32,-82991.72l2000,0" />
          <path d="M87987.32,-83118.38l-2000,0" />
          <path d="M87987.32,-82738.38l-2000,0" />
          <path d="M91743.35,-82738.38l0,-380" />
          <path d="M89743.35,-83118.38l0,380" />
          <path d="M91743.35,-82991.72l-2000,0" />
          <path d="M91743.35,-82865.05l-2000,0" />
          <path d="M89743.35,-82738.38l2000,0" />
          <path d="M89743.35,-83118.38l2000,0" />
          <path d="M94982.32,-83118.38l0,380" />
          <path d="M92982.32,-82738.38l0,-380" />
          <path d="M94982.32,-82865.05l-2000,0" />
          <path d="M94982.32,-82991.72l-2000,0" />
          <path d="M92982.32,-83118.38l2000,0" />
          <path d="M92982.32,-82738.38l2000,0" />
          <path d="M58112.32,-100608.38l0,-380" />
          <path d="M60112.32,-100988.38l0,380" />
          <path d="M58112.32,-100861.72l2000,0" />
          <path d="M58112.32,-100735.05l2000,0" />
          <path d="M60112.32,-100608.38l-2000,0" />
          <path d="M60112.32,-100988.38l-2000,0" />
          <path d="M61112.32,-100608.38l0,-380" />
          <path d="M63112.32,-100988.38l0,380" />
          <path d="M61112.32,-100861.72l2000,0" />
          <path d="M61112.32,-100735.05l2000,0" />
          <path d="M63112.32,-100608.38l-2000,0" />
          <path d="M63112.32,-100988.38l-2000,0" />
          <path d="M64112.32,-100608.38l0,-380" />
          <path d="M66112.32,-100988.38l0,380" />
          <path d="M64112.32,-100861.72l2000,0" />
          <path d="M64112.32,-100735.05l2000,0" />
          <path d="M66112.32,-100608.38l-2000,0" />
          <path d="M66112.32,-100988.38l-2000,0" />
          <path d="M59112.32,-84738.38l0,-380" />
          <path d="M57112.32,-85118.38l0,380" />
          <path d="M59112.32,-84991.72l-2000,0" />
          <path d="M59112.32,-84865.05l-2000,0" />
          <path d="M57112.32,-84738.38l2000,0" />
          <path d="M57112.32,-85118.38l2000,0" />
          <path d="M41112.32,-84738.38l0,-380" />
          <path d="M43112.32,-85118.38l0,380" />
          <path d="M41112.32,-84991.72l2000,0" />
          <path d="M41112.32,-84865.05l2000,0" />
          <path d="M43112.32,-84738.38l-2000,0" />
        </g>
        <g id="layer-dr" class="dr">
          <path d="M46058.76,-95838.38l50,0" />
          <path d="M46108.76,-94863.38l-50,0" />
          <path d="M45108.76,-94863.38a975,975 0 0,1 950,-974.68" />
          <path d="M46108.76,-94863.38l0,-975" />
          <path d="M46058.76,-94863.38l0,-975" />
          <path d="M24237.32,-95838.38l50,0" />
          <path d="M24287.32,-94863.38l-50,0" />
          <path d="M23287.32,-94863.38a975,975 0 0,1 950,-974.68" />
          <path d="M24287.32,-94863.38l0,-975" />
          <path d="M24237.32,-94863.38l0,-975" />
          <path d="M28242.32,-90888.38l50,0" />
          <path d="M28292.32,-91863.38l-50,0" />
          <path d="M28242.32,-90888.71a975,975 0 0,1 -950,-974.68" />
          <path d="M28292.32,-91863.38l0,975" />
          <path d="M28242.32,-91863.38l0,975" />
          <path d="M59987.32,-90888.38l-50,0" />
          <path d="M59937.32,-91863.38l50,0" />
          <path d="M60937.32,-91863.38a975,975 0 0,1 -950,974.68" />
          <path d="M59937.32,-91863.38l0,975" />
          <path d="M59987.32,-91863.38l0,975" />
          <path d="M40258.74,-90888.38l50,0" />
          <path d="M40308.74,-91863.38l-50,0" />
          <path d="M40258.74,-90888.71a975,975 0 0,1 -950,-974.68" />
          <path d="M40308.74,-91863.38l0,975" />
          <path d="M40258.74,-91863.38l0,975" />
          <path d="M24992.02,-95838.38l-50,0" />
          <path d="M24942.02,-94863.38l50,0" />
          <path d="M24992.02,-95838.06a975,975 0 0,1 950,974.68" />
          <path d="M24942.02,-94863.38l0,-975" />
          <path d="M24992.02,-94863.38l0,-975" />
          <path d="M15992.02,-95838.38l-50,0" />
          <path d="M15942.02,-94863.38l50,0" />
          <path d="M15992.02,-95838.06a975,975 0 0,1 950,974.68" />
          <path d="M15942.02,-94863.38l0,-975" />
          <path d="M15992.02,-94863.38l0,-975" />
          <path d="M33992.02,-95838.38l-50,0" />
          <path d="M33942.02,-94863.38l50,0" />
          <path d="M33992.02,-95838.06a975,975 0 0,1 950,974.68" />
          <path d="M33942.02,-94863.38l0,-975" />
          <path d="M33992.02,-94863.38l0,-975" />
          <path d="M80242.32,-90888.38l50,0" />
          <path d="M80292.32,-91863.38l-50,0" />
          <path d="M80242.32,-90888.71a975,975 0 0,1 -950,-974.68" />
          <path d="M80292.32,-91863.38l0,975" />
          <path d="M80242.32,-91863.38l0,975" />
          <path d="M65296.62,-90888.38l50,0" />
          <path d="M65346.62,-91863.38l-50,0" />
          <path d="M65296.62,-90888.71a975,975 0 0,1 -950,-974.68" />
          <path d="M65346.62,-91863.38l0,975" />
          <path d="M65296.62,-91863.38l0,975" />
          <path d="M54066.07,-95838.38l-50,0" />
          <path d="M54016.07,-94863.38l50,0" />
          <path d="M54066.07,-95838.06a975,975 0 0,1 950,974.68" />
          <path d="M54016.07,-94863.38l0,-975" />
          <path d="M54066.07,-94863.38l0,-975" />
          <path d="M14913.48,-90888.38l50,0" />
          <path d="M14963.48,-91863.38l-50,0" />
          <path d="M14913.48,-90888.71a975,975 0 0,1 -950,-974.68" />
          <path d="M14963.48,-91863.38l0,975" />
          <path d="M14913.48,-91863.38l0,975" />
          <path d="M4116.17,-95838.38l-50,0" />
          <path d="M4066.17,-94863.38l50,0" />
          <path d="M4116.17,-95838.06a975,975 0 0,1 950,974.68" />
          <path d="M4066.17,-94863.38l0,-975" />
          <path d="M4116.17,-94863.38l0,-975" />
          <path d="M85311.17,-95838.38l-50,0" />
          <path d="M85261.17,-94863.38l50,0" />
          <path d="M85311.17,-95838.06a975,975 0 0,1 950,974.68" />
          <path d="M85261.17,-94863.38l0,-975" />
          <path d="M85311.17,-94863.38l0,-975" />
          <path d="M96108.48,-90888.38l50,0" />
          <path d="M96158.48,-91863.38l-50,0" />
          <path d="M96108.48,-90888.71a975,975 0 0,1 -950,-974.68" />
          <path d="M96158.48,-91863.38l0,975" />
          <path d="M96108.48,-91863.38l0,975" />
          <path d="M57267.07,-95838.5l-50,0" />
          <path d="M57217.07,-94863.5l50,0" />
          <path d="M57267.07,-95838.18a975,975 0 0,1 950,974.68" />
          <path d="M57217.07,-94863.5l0,-975" />
          <path d="M57267.07,-94863.5l0,-975" />
          <path d="M60468.07,-95838.62l-50,0" />
          <path d="M60418.07,-94863.62l50,0" />
          <path d="M60468.07,-95838.3a975,975 0 0,1 950,974.68" />
          <path d="M60418.07,-94863.62l0,-975" />
          <path d="M60468.07,-94863.62l0,-975" />
          <path d="M63669.07,-95838.74l-50,0" />
          <path d="M63619.07,-94863.74l50,0" />
          <path d="M63669.07,-95838.42a975,975 0 0,1 950,974.68" />
          <path d="M63619.07,-94863.74l0,-975" />
          <path d="M63669.07,-94863.74l0,-975" />
          <path d="M67003.07,-95838.74l-50,0" />
          <path d="M66953.07,-94863.74l50,0" />
          <path d="M67003.07,-95838.42a975,975 0 0,1 950,974.68" />
          <path d="M66953.07,-94863.74l0,-975" />
          <path d="M67003.07,-94863.74l0,-975" />
          <path d="M69981.07,-95838.74l-50,0" />
          <path d="M69931.07,-94863.74l50,0" />
          <path d="M69981.07,-95838.42a975,975 0 0,1 950,974.68" />
          <path d="M69931.07,-94863.74l0,-975" />
          <path d="M69981.07,-94863.74l0,-975" />
          <path d="M72959.07,-95838.74l-50,0" />
          <path d="M72909.07,-94863.74l50,0" />
          <path d="M72959.07,-95838.42a975,975 0 0,1 950,974.68" />
          <path d="M72909.07,-94863.74l0,-975" />
          <path d="M72959.07,-94863.74l0,-975" />
          <path d="M75937.07,-95838.74l-50,0" />
          <path d="M75887.07,-94863.74l50,0" />
          <path d="M75937.07,-95838.42a975,975 0 0,1 950,974.68" />
          <path d="M75887.07,-94863.74l0,-975" />
          <path d="M75937.07,-94863.74l0,-975" />
          <path d="M78915.07,-95838.74l-50,0" />
          <path d="M78865.07,-94863.74l50,0" />
          <path d="M78915.07,-95838.42a975,975 0 0,1 950,974.68" />
          <path d="M78865.07,-94863.74l0,-975" />
          <path d="M78915.07,-94863.74l0,-975" />
          <path d="M81893.07,-95838.74l-50,0" />
          <path d="M81843.07,-94863.74l50,0" />
          <path d="M81893.07,-95838.42a975,975 0 0,1 950,974.68" />
          <path d="M81843.07,-94863.74l0,-975" />
          <path d="M81893.07,-94863.74l0,-975" />
          <path d="M68265.37,-90888.38l50,0" />
          <path d="M68315.37,-91863.38l-50,0" />
          <path d="M68265.37,-90888.71a975,975 0 0,1 -950,-974.68" />
          <path d="M68315.37,-91863.38l0,975" />
          <path d="M68265.37,-91863.38l0,975" />
          <path d="M71234.12,-90888.38l50,0" />
          <path d="M71284.12,-91863.38l-50,0" />
          <path d="M71234.12,-90888.71a975,975 0 0,1 -950,-974.68" />
          <path d="M71284.12,-91863.38l0,975" />
          <path d="M71234.12,-91863.38l0,975" />
          <path d="M74315.55,-90888.38l50,0" />
          <path d="M74365.55,-91863.38l-50,0" />
          <path d="M74315.55,-90888.71a975,975 0 0,1 -950,-974.68" />
          <path d="M74365.55,-91863.38l0,975" />
          <path d="M74315.55,-91863.38l0,975" />
          <path d="M77275.55,-90888.38l50,0" />
          <path d="M77325.55,-91863.38l-50,0" />
          <path d="M77275.55,-90888.71a975,975 0 0,1 -950,-974.68" />
          <path d="M77325.55,-91863.38l0,975" />
          <path d="M77275.55,-91863.38l0,975" />
          <path d="M45633.23,-85304.91l0,50" />
          <path d="M46608.23,-85254.91l0,-50" />
          <path d="M45633.55,-85304.91a975,975 0 0,1 974.68,-950" />
          <path d="M46608.23,-85254.91l-975,0" />
          <path d="M46608.23,-85304.91l-975,0" />
          <path d="M54631.42,-85304.91l0,50" />
          <path d="M53656.42,-85254.91l0,-50" />
          <path d="M53656.42,-86254.91a975,975 0 0,1 974.68,950" />
          <path d="M53656.42,-85254.91l975,0" />
          <path d="M53656.42,-85304.91l975,0" />
        </g>
        <g id="layer-wa" class="wa">
          <path d="M53802.32,-85118.38l5685,0l0,-6555l-5685,0z" />
          <path d="M8732.32,-94673.38l-5060,0l0,2620l0,-2620l5060,0l38070,0l0,-5935" />
          <path d="M46802.32,-100608.38l6620,0l0,5935l36310,0l6820,0l0,2620l-6820,0l-5245,0" />
          <path d="M84487.32,-92053.38l0,6935l-3755,0l0,-6935l-27310,0l0,7315l3320,0l-3320,0" />
          <path d="M46802.32,-84738.38l-3280,0l3280,0l0,-7315l-27310,0l0,6935l-3755,0l0,-6935l-5245,0l-6820,0" />
          <path d="M40737.32,-85118.38l5685,0l0,-6555l-5685,0l0,6555z" />
          <path d="M43552.25,-85118.38l0,-2219.16" />
          <path d="M43552.32,-87157.55l0,-4515.84" />
          <path d="M43672.32,-85118.38l0,-6555" />
          <path d="M55982.4,-85118.38l0,-2219.16" />
          <path d="M55982.32,-87157.55l0,-4515.84" />
          <path d="M55862.32,-85118.38l0,-6555" />
        </g>
        <g id="layer-STAIR" class="stair">
          <path d="M15737.32,-90818.38l0,94.1" />
          <path d="M15737.32,-90612.48l0,3694.1" />
          <path d="M17537.32,-90818.38l0,994.1" />
          <path d="M17537.32,-89712.48l0,2794.1" />
          <path d="M15737.32,-90818.38l1800,0" />
          <path d="M15737.32,-90518.38l188.2,0" />
          <path d="M16149.13,-90518.38l1388.2,0" />
          <path d="M15737.32,-90218.38l788.2,0" />
          <path d="M16749.13,-90218.38l788.2,0" />
          <path d="M15737.32,-89918.38l1388.2,0" />
          <path d="M17349.13,-89918.38l188.2,0" />
          <path d="M15737.32,-89618.38l1800,0" />
          <path d="M15737.32,-89318.38l1800,0" />
          <path d="M15737.32,-89018.38l1800,0" />
          <path d="M15737.32,-88718.38l1800,0" />
          <path d="M15737.32,-88418.38l1800,0" />
          <path d="M15737.32,-88118.38l1800,0" />
          <path d="M15737.32,-87818.38l1800,0" />
          <path d="M15737.32,-87518.38l1800,0" />
          <path d="M15737.32,-87218.38l1800,0" />
          <path d="M15737.32,-86918.38l1800,0" />
          <path d="M15737.32,-90612.48l809.27,404.63" />
          <path d="M15737.32,-90724.29l830.02,415.01" />
          <path d="M16567.35,-90309.27l-35.77,174.81" />
          <path d="M16531.58,-90134.47l195.32,-184.93" />
          <path d="M16726.89,-90319.39l-37.44,182.97" />
          <path d="M16689.45,-90136.42l847.87,423.94" />
          <path d="M16710.21,-90237.85l827.12,413.56" />
          <path d="M19492.32,-86918.38l0,-3900" />
          <path d="M19492.32,-86918.38l-1740,0" />
          <path d="M19492.32,-87218.38l-1740,0" />
          <path d="M19492.32,-87518.38l-1740,0" />
          <path d="M19492.32,-87818.38l-1740,0" />
          <path d="M19492.32,-88118.38l-1740,0" />
          <path d="M19492.32,-88418.38l-1740,0" />
          <path d="M19492.32,-88718.38l-1740,0" />
          <path d="M19492.32,-89018.38l-1740,0" />
          <path d="M19492.32,-89318.38l-1740,0" />
          <path d="M19492.32,-89618.38l-1740,0" />
          <path d="M19492.32,-89918.38l-1740,0" />
          <path d="M19492.32,-90218.38l-1740,0" />
          <path d="M19492.32,-90518.38l-1740,0" />
          <path d="M19492.32,-90818.38l-1740,0" />
          <path d="M17692.32,-86918.38l0,-3900" />
          <path d="M17752.32,-90968.38l-275,0" />
          <path d="M17477.32,-90968.38l0,1114.1" />
          <path d="M17477.32,-89742.48l0,2974.1" />
          <path d="M17477.32,-86768.38l275,0" />
          <path d="M17752.32,-86768.38l0,-4200" />
          <path d="M17692.32,-90908.38l-155,0" />
          <path d="M17537.32,-90908.38l0,1084.1" />
          <path d="M17537.32,-89712.48l0,2884.1" />
          <path d="M17537.32,-86828.38l155,0" />
          <path d="M17692.32,-86828.38l0,-4080" />
          <path d="M17537.32,-90818.38l155,0" />
          <path d="M16695.24,-91453.9l0,2046.25l0,300" />
          <path d="M18604.69,-91365.64l8.05,5341.38l-1905.6,2.09l0,-2216.6l0,-300" />
          <path d="M82687.32,-90818.38l0,994.1" />
          <path d="M82687.32,-89712.48l0,2794.1" />
          <path d="M84487.32,-90818.38l-1800,0" />
          <path d="M84075.52,-90518.38l-1388.2,0" />
          <path d="M84487.32,-90218.38l-788.2,0" />
          <path d="M83475.52,-90218.38l-788.2,0" />
          <path d="M84487.32,-89918.38l-1388.2,0" />
          <path d="M82875.52,-89918.38l-188.2,0" />
          <path d="M84487.32,-89618.38l-1800,0" />
          <path d="M84487.32,-89318.38l-1800,0" />
          <path d="M84487.32,-89018.38l-1800,0" />
          <path d="M84487.32,-88718.38l-1800,0" />
          <path d="M84487.32,-88418.38l-1800,0" />
          <path d="M84487.32,-88118.38l-1800,0" />
          <path d="M84487.32,-87818.38l-1800,0" />
          <path d="M84487.32,-87518.38l-1800,0" />
          <path d="M84487.32,-87218.38l-1800,0" />
          <path d="M84487.32,-86918.38l-1800,0" />
          <path d="M84487.32,-90612.48l-809.27,404.63" />
          <path d="M84487.32,-90724.29l-830.02,415.01" />
          <path d="M83657.3,-90309.27l35.77,174.81" />
          <path d="M83693.07,-90134.47l-195.32,-184.93" />
          <path d="M83497.76,-90319.39l37.44,182.97" />
          <path d="M83535.2,-90136.42l-847.87,423.94" />
          <path d="M83514.44,-90237.85l-827.12,413.56" />
          <path d="M80732.32,-86918.38l1740,0" />
          <path d="M80732.32,-87218.38l1740,0" />
          <path d="M80732.32,-87518.38l1740,0" />
          <path d="M80732.32,-87818.38l1740,0" />
          <path d="M80732.32,-88118.38l1740,0" />
          <path d="M80732.32,-88418.38l1740,0" />
          <path d="M80732.32,-88718.38l1740,0" />
          <path d="M80732.32,-89018.38l1740,0" />
          <path d="M80732.32,-89318.38l1740,0" />
          <path d="M80732.32,-89618.38l1740,0" />
          <path d="M80732.32,-89918.38l1740,0" />
          <path d="M80732.32,-90218.38l1740,0" />
          <path d="M80732.32,-90518.38l1740,0" />
          <path d="M80732.32,-90818.38l1740,0" />
          <path d="M82532.32,-86918.38l0,-3900" />
          <path d="M82472.32,-90968.38l275,0" />
          <path d="M82747.32,-90968.38l0,1114.1" />
          <path d="M82747.32,-89742.48l0,2974.1" />
          <path d="M82747.32,-86768.38l-275,0" />
          <path d="M82472.32,-86768.38l0,-4200" />
          <path d="M82532.32,-90908.38l155,0" />
          <path d="M82687.32,-90908.38l0,1084.1" />
          <path d="M82687.32,-89712.48l0,2884.1" />
          <path d="M82687.32,-86828.38l-155,0" />
          <path d="M82532.32,-86828.38l0,-4080" />
          <path d="M82687.32,-90818.38l-155,0" />
          <path d="M83529.41,-91453.9l0,2046.25l0,300" />
          <path d="M81619.96,-91365.64l-8.05,5341.38l1905.6,2.09l0,-2216.6l0,-300" />
          <path d="M51822.32,-90235.53l0,3900" />
          <path d="M53422.32,-90235.53l0,3900" />
          <path d="M51822.32,-90235.53l1600,0" />
          <path d="M51822.32,-89935.53l1600,0" />
          <path d="M51822.32,-89635.53l1600,0" />
          <path d="M51822.32,-89335.53l1600,0" />
          <path d="M51822.32,-89035.53l1600,0" />
          <path d="M51822.32,-88735.53l1600,0" />
          <path d="M51822.32,-88435.53l1600,0" />
          <path d="M51822.32,-88135.53l1600,0" />
          <path d="M51822.32,-87835.53l1600,0" />
          <path d="M51822.32,-87535.53l1600,0" />
          <path d="M51822.32,-87235.53l1600,0" />
          <path d="M51822.32,-86935.53l1600,0" />
          <path d="M51822.32,-86635.53l1600,0" />
          <path d="M51822.32,-86335.53l1600,0" />
          <path d="M51712.32,-86335.53l0,-3900" />
          <path d="M50112.32,-86335.53l0,-3900" />
          <path d="M51712.32,-86335.53l-1600,0" />
          <path d="M51712.32,-86635.53l-1600,0" />
          <path d="M51712.32,-86935.53l-1600,0" />
          <path d="M51712.32,-87235.53l-1600,0" />
          <path d="M51712.32,-87535.53l-1600,0" />
          <path d="M51712.32,-87835.53l-1600,0" />
          <path d="M51712.32,-88135.53l-1600,0" />
          <path d="M51712.32,-88435.53l-1600,0" />
          <path d="M51712.32,-88735.53l-1600,0" />
          <path d="M51712.32,-89035.53l-1600,0" />
          <path d="M51712.32,-89335.53l-1600,0" />
          <path d="M51712.32,-89635.53l-1600,0" />
          <path d="M51712.32,-89935.53l-1600,0" />
          <path d="M51712.32,-90235.53l-1600,0" />
          <path d="M51822.32,-90235.53l0,3990" />
          <path d="M51822.32,-86245.53l-110,0" />
          <path d="M51712.32,-86245.53l0,-4080" />
          <path d="M51712.32,-90325.53l1710,0" />
          <path d="M51882.32,-90235.53l0,4050" />
          <path d="M51882.32,-86185.53l-230,0" />
          <path d="M51652.32,-86185.53l0,-4200" />
          <path d="M51652.32,-90385.53l1770,0" />
          <path d="M51822.32,-90235.53l60,0" />
          <path d="M53422.32,-90325.53l0,-60" />
          <path d="M53422.32,-86335.53l0,300" />
          <path d="M53422.32,-86035.53l-3310,0" />
          <path d="M50112.32,-86035.53l0,-300" />
          <path d="M50112.32,-86335.53l1540,0" />
          <path d="M51712.32,-86335.53l110,0" />
          <path d="M51882.32,-86335.53l1540,0" />
          <path d="M51822.32,-90235.53l-110,0" />
          <path d="M46802.32,-90235.53l0,3900" />
          <path d="M48402.32,-90235.53l0,3900" />
          <path d="M46802.32,-90235.53l1600,0" />
          <path d="M46802.32,-89935.53l1600,0" />
          <path d="M46802.32,-89635.53l1600,0" />
          <path d="M46802.32,-89335.53l1600,0" />
          <path d="M46802.32,-89035.53l1600,0" />
          <path d="M46802.32,-88735.53l1600,0" />
          <path d="M46802.32,-88435.53l1600,0" />
          <path d="M46802.32,-88135.53l1600,0" />
          <path d="M46802.32,-87835.53l1600,0" />
          <path d="M46802.32,-87535.53l1600,0" />
          <path d="M46802.32,-87235.53l1600,0" />
          <path d="M46802.32,-86935.53l1600,0" />
          <path d="M46802.32,-86635.53l1600,0" />
          <path d="M46802.32,-86335.53l1600,0" />
          <path d="M50112.32,-86335.53l0,-3900" />
          <path d="M48512.32,-86335.53l0,-3900" />
          <path d="M50112.32,-86335.53l-1600,0" />
          <path d="M50112.32,-86635.53l-1600,0" />
          <path d="M50112.32,-86935.53l-1600,0" />
          <path d="M50112.32,-87235.53l-1600,0" />
          <path d="M50112.32,-87535.53l-1600,0" />
          <path d="M50112.32,-87835.53l-1600,0" />
          <path d="M50112.32,-88135.53l-1600,0" />
          <path d="M50112.32,-88435.53l-1600,0" />
          <path d="M50112.32,-88735.53l-1600,0" />
          <path d="M50112.32,-89035.53l-1600,0" />
          <path d="M50112.32,-89335.53l-1600,0" />
          <path d="M50112.32,-89635.53l-1600,0" />
          <path d="M50112.32,-89935.53l-1600,0" />
          <path d="M50112.32,-90235.53l-1600,0" />
          <path d="M48342.32,-90235.53l0,4050" />
          <path d="M48342.32,-86185.53l230,0" />
          <path d="M48572.32,-86185.53l0,-4200" />
          <path d="M48572.32,-90385.53l-1770,0" />
          <path d="M48402.32,-90235.53l0,3990" />
          <path d="M48402.32,-86245.53l110,0" />
          <path d="M48512.32,-86245.53l0,-4080" />
          <path d="M48512.32,-90325.53l-1710,0" />
          <path d="M48342.32,-90235.53l60,0" />
          <path d="M46802.32,-90385.53l0,60" />
          <path d="M50112.32,-86335.53l0,300" />
          <path d="M50112.32,-86035.53l-3310,0" />
          <path d="M46802.32,-86035.53l0,-300" />
          <path d="M46802.32,-86335.53l1540,0" />
          <path d="M48402.32,-86335.53l110,0" />
          <path d="M48572.32,-86335.53l1540,0" />
          <path d="M48402.32,-90235.53l110,0" />
          <path d="M50117.87,-90681.95l0,4646.42" />
          <path d="M52651,-86035.53l8.97,-3011.28" />
          <path d="M52659.97,-89046.81l0.89,-300" />
          <path d="M47625.14,-86035.53l-12.62,-3069.61" />
          <path d="M47612.52,-89105.14l-1.23,-300" />
        </g>
        <g id="layer-gros" class="gros">
          <path d="M3422.32,-82738.38l12315,0l0,-2000l27545,0l0,0l0,0l0,0l0,0l0,0l0,0l13700,0l0,0l0,0l0,0l0,0l0,0l0,0l27505,0l0,2000l12315,0l0,-21250l-12315,0l0,3000l-30685.21,0l0,0l-7379.79,0l0,0l-30685,0l0,-3000l-12315,0l0,21250z" />
        </g>
        <g id="layer-toilet" class="toilet">
          <path d="M41077.32,-91083.6a40,40 0 0,1 -40,-40" />
          <path d="M41077.32,-91113.6a10,10 0 0,1 -10,-10" />
          <path d="M41037.32,-91323.17a40,40 0 0,1 40,-40" />
          <path d="M41067.32,-91323.17a10,10 0 0,1 10,-10" />
          <path d="M41067.32,-91123.6l0,-199.57" />
          <path d="M41037.32,-91123.6l0,-199.57" />
          <path d="M41626.98,-91253.17l0,59.57" />
          <path d="M41516.98,-91363.17a110,110 0 0,1 110,110" />
          <path d="M41506.98,-91083.6l0,-279.57" />
          <path d="M41626.98,-91193.6a110,110 0 0,1 -110,110" />
          <path d="M41077.32,-91363.17l439.66,0" />
          <path d="M41077.32,-91333.17l429.66,0" />
          <path d="M41516.98,-91083.6l-439.66,0" />
          <path d="M41506.98,-91113.6l-429.66,0" />
          <path d="M41077.32,-90183.6a40,40 0 0,1 -40,-40" />
          <path d="M41077.32,-90213.6a10,10 0 0,1 -10,-10" />
          <path d="M41037.32,-90423.17a40,40 0 0,1 40,-40" />
          <path d="M41067.32,-90423.17a10,10 0 0,1 10,-10" />
          <path d="M41067.32,-90223.6l0,-199.57" />
          <path d="M41037.32,-90223.6l0,-199.57" />
          <path d="M41626.98,-90353.17l0,59.57" />
          <path d="M41516.98,-90463.17a110,110 0 0,1 110,110" />
          <path d="M41506.98,-90183.6l0,-279.57" />
          <path d="M41626.98,-90293.6a110,110 0 0,1 -110,110" />
          <path d="M41077.32,-90463.17l439.66,0" />
          <path d="M41077.32,-90433.17l429.66,0" />
          <path d="M41516.98,-90183.6l-439.66,0" />
          <path d="M41506.98,-90213.6l-429.66,0" />
          <path d="M41077.32,-89283.6a40,40 0 0,1 -40,-40" />
          <path d="M41077.32,-89313.6a10,10 0 0,1 -10,-10" />
          <path d="M41037.32,-89523.17a40,40 0 0,1 40,-40" />
          <path d="M41067.32,-89523.17a10,10 0 0,1 10,-10" />
          <path d="M41067.32,-89323.6l0,-199.57" />
          <path d="M41037.32,-89323.6l0,-199.57" />
          <path d="M41626.98,-89453.17l0,59.57" />
          <path d="M41516.98,-89563.17a110,110 0 0,1 110,110" />
          <path d="M41506.98,-89283.6l0,-279.57" />
          <path d="M41626.98,-89393.6a110,110 0 0,1 -110,110" />
          <path d="M41077.32,-89563.17l439.66,0" />
          <path d="M41077.32,-89533.17l429.66,0" />
          <path d="M41516.98,-89283.6l-439.66,0" />
          <path d="M41506.98,-89313.6l-429.66,0" />
          <path d="M41077.32,-88383.6a40,40 0 0,1 -40,-40" />
          <path d="M41077.32,-88413.6a10,10 0 0,1 -10,-10" />
          <path d="M41037.32,-88623.17a40,40 0 0,1 40,-40" />
          <path d="M41067.32,-88623.17a10,10 0 0,1 10,-10" />
          <path d="M41067.32,-88423.6l0,-199.57" />
          <path d="M41037.32,-88423.6l0,-199.57" />
          <path d="M41626.98,-88553.17l0,59.57" />
          <path d="M41516.98,-88663.17a110,110 0 0,1 110,110" />
          <path d="M41506.98,-88383.6l0,-279.57" />
          <path d="M41626.98,-88493.6a110,110 0 0,1 -110,110" />
          <path d="M41077.32,-88663.17l439.66,0" />
          <path d="M41077.32,-88633.17l429.66,0" />
          <path d="M41516.98,-88383.6l-439.66,0" />
          <path d="M41506.98,-88413.6l-429.66,0" />
          <path d="M41077.32,-87483.6a40,40 0 0,1 -40,-40" />
          <path d="M41077.32,-87513.6a10,10 0 0,1 -10,-10" />
          <path d="M41037.32,-87723.17a40,40 0 0,1 40,-40" />
          <path d="M41067.32,-87723.17a10,10 0 0,1 10,-10" />
          <path d="M41067.32,-87523.6l0,-199.57" />
          <path d="M41037.32,-87523.6l0,-199.57" />
          <path d="M41626.98,-87653.17l0,59.57" />
          <path d="M41516.98,-87763.17a110,110 0 0,1 110,110" />
          <path d="M41506.98,-87483.6l0,-279.57" />
          <path d="M41626.98,-87593.6a110,110 0 0,1 -110,110" />
          <path d="M41077.32,-87763.17l439.66,0" />
          <path d="M41077.32,-87733.17l429.66,0" />
          <path d="M41516.98,-87483.6l-439.66,0" />
          <path d="M41506.98,-87513.6l-429.66,0" />
          <path d="M41077.32,-86583.6a40,40 0 0,1 -40,-40" />
          <path d="M41077.32,-86613.6a10,10 0 0,1 -10,-10" />
          <path d="M41037.32,-86823.17a40,40 0 0,1 40,-40" />
          <path d="M41067.32,-86823.17a10,10 0 0,1 10,-10" />
          <path d="M41067.32,-86623.6l0,-199.57" />
          <path d="M41037.32,-86623.6l0,-199.57" />
          <path d="M41626.98,-86753.17l0,59.57" />
          <path d="M41516.98,-86863.17a110,110 0 0,1 110,110" />
          <path d="M41506.98,-86583.6l0,-279.57" />
          <path d="M41626.98,-86693.6a110,110 0 0,1 -110,110" />
          <path d="M41077.32,-86863.17l439.66,0" />
          <path d="M41077.32,-86833.17l429.66,0" />
          <path d="M41516.98,-86583.6l-439.66,0" />
          <path d="M41506.98,-86613.6l-429.66,0" />
          <path d="M42570.16,-85118.38l0,-360.66" />
          <path d="M42541.44,-85474.82l0,141.8" />
          <path d="M42541.44,-85333.02a28,28 0 0,1 -8.82,20.4" />
          <circle r="24.9" cx="42291.07" cy="-85299.94" />
          <circle r="8" cx="42290.19" cy="-85175.11" />
          <circle r="15" cx="42429.07" cy="-85187.46" />
          <path d="M42520.51,-85534.68a56,56 0 0,1 49.64,55.64" />
          <path d="M42516.61,-85502.64a28,28 0 0,1 24.82,27.82" />
          <path d="M42010.16,-85118.38l0,-360.66" />
          <path d="M42039.24,-85474.86l0,142.18" />
          <path d="M42039.24,-85474.86a28,28 0 0,1 24.83,-27.82" />
          <path d="M42048.09,-85312.25a28,28 0 0,1 -8.85,-20.43" />
          <circle r="15" cx="42151.24" cy="-85187.46" />
          <path d="M42010.16,-85479.04a56,56 0 0,1 49.64,-55.64" />
          <path d="M42059.8,-85534.68a2028.99,2028.99 0 0,1 460.72,0" />
          <path d="M42200.35,-85147.43l180,0" />
          <path d="M42010.16,-85147.43l560,0" />
          <path d="M42010.16,-85118.38l560,0" />
          <path d="M42064.07,-85502.68a1996.71,1996.71 0 0,1 452.55,0.04" />
          <path d="M42532.62,-85312.62a353.92,353.92 0 0,1 -484.53,0.37" />
          <path d="M42290.35,-85147.43l-90,0" />
          <path d="M40737.25,-86233.38l1075.08,0" />
          <path d="M40737.25,-86293.38l1075.08,0" />
          <path d="M40737.25,-86233.38l0,-60" />
          <path d="M41812.32,-86233.38l0,-60" />
          <path d="M40737.32,-87133.38l1075,0" />
          <path d="M40737.32,-87193.38l1075,0" />
          <path d="M40737.32,-87133.38l0,-60" />
          <path d="M41812.32,-87133.38l0,-60" />
          <path d="M40737.32,-88033.38l1075,0" />
          <path d="M40737.32,-88093.38l1075,0" />
          <path d="M40737.32,-88033.38l0,-60" />
          <path d="M41812.32,-88033.38l0,-60" />
          <path d="M40737.25,-88933.38l1075.08,0" />
          <path d="M40737.32,-88993.38l1075,0" />
          <path d="M40737.25,-88933.38l0.08,-60" />
          <path d="M41812.32,-88933.38l0,-60" />
          <path d="M40737.25,-89833.38l1075.08,0" />
          <path d="M40737.25,-89893.38l1075.08,0" />
          <path d="M40737.25,-89833.38l0,-60" />
          <path d="M41812.32,-89833.38l0,-60" />
          <path d="M40737.25,-90733.38l1075.08,0" />
          <path d="M40737.32,-90793.38l1075,0" />
          <path d="M40737.25,-90733.38l0.08,-60" />
          <path d="M41812.32,-90733.38l0,-60" />
          <path d="M40787.32,-85668.38l168.77,210.96" />
          <circle r="50" cx="40987.32" cy="-85418.38" />
          <path d="M40956.09,-85379.34l-168.77,210.96" />
          <path d="M41187.32,-85168.38l-400,0" />
          <path d="M40787.32,-85168.38l0,-500" />
          <path d="M40787.32,-85668.38l400,0" />
          <path d="M41187.32,-85668.38l0,500" />
          <path d="M41018.56,-85379.34l168.77,210.96" />
          <path d="M41187.32,-85668.38l-168.77,210.96" />
          <path d="M41237.32,-85118.38l-500,0" />
          <path d="M40737.32,-85118.38l0,-600" />
          <path d="M40737.32,-85718.38l500,0" />
          <path d="M41237.32,-85718.38l0,600" />
          <path d="M41812.32,-86293.38l0,-5380" />
          <path d="M58897.54,-91333.38a40,40 0 0,1 40,-40" />
          <path d="M58927.54,-91333.38a10,10 0 0,1 10,-10" />
          <path d="M59137.11,-91373.38a40,40 0 0,1 40,40" />
          <path d="M59137.11,-91343.38a10,10 0 0,1 10,10" />
          <path d="M58937.54,-91343.38l199.57,0" />
          <path d="M58937.54,-91373.38l199.57,0" />
          <path d="M59067.11,-90783.73l-59.57,0" />
          <path d="M59177.11,-90893.73a110,110 0 0,1 -110,110" />
          <path d="M58897.54,-90903.73l279.57,0" />
          <path d="M59007.54,-90783.73a110,110 0 0,1 -110,-110" />
          <path d="M59177.11,-91333.38l0,439.66" />
          <path d="M59147.11,-91333.38l0,429.66" />
          <path d="M58897.54,-90893.73l0,-439.66" />
          <path d="M58927.54,-90903.73l0,-429.66" />
          <path d="M57997.54,-91333.38a40,40 0 0,1 40,-40" />
          <path d="M58027.54,-91333.38a10,10 0 0,1 10,-10" />
          <path d="M58237.11,-91373.38a40,40 0 0,1 40,40" />
          <path d="M58237.11,-91343.38a10,10 0 0,1 10,10" />
          <path d="M58037.54,-91343.38l199.57,0" />
          <path d="M58037.54,-91373.38l199.57,0" />
          <path d="M58167.11,-90783.73l-59.57,0" />
          <path d="M58277.11,-90893.73a110,110 0 0,1 -110,110" />
          <path d="M57997.54,-90903.73l279.57,0" />
          <path d="M58107.54,-90783.73a110,110 0 0,1 -110,-110" />
          <path d="M58277.11,-91333.38l0,439.66" />
          <path d="M58247.11,-91333.38l0,429.66" />
          <path d="M57997.54,-90893.73l0,-439.66" />
          <path d="M58027.54,-90903.73l0,-429.66" />
          <path d="M57097.54,-91333.38a40,40 0 0,1 40,-40" />
          <path d="M57127.54,-91333.38a10,10 0 0,1 10,-10" />
          <path d="M57337.11,-91373.38a40,40 0 0,1 40,40" />
          <path d="M57337.11,-91343.38a10,10 0 0,1 10,10" />
          <path d="M57137.54,-91343.38l199.57,0" />
          <path d="M57137.54,-91373.38l199.57,0" />
          <path d="M57267.11,-90783.73l-59.57,0" />
          <path d="M57377.11,-90893.73a110,110 0 0,1 -110,110" />
          <path d="M57097.54,-90903.73l279.57,0" />
          <path d="M57207.54,-90783.73a110,110 0 0,1 -110,-110" />
          <path d="M57377.11,-91333.38l0,439.66" />
          <path d="M57347.11,-91333.38l0,429.66" />
          <path d="M57097.54,-90893.73l0,-439.66" />
          <path d="M57127.54,-90903.73l0,-429.66" />
          <path d="M56197.54,-91333.38a40,40 0 0,1 40,-40" />
          <path d="M56227.54,-91333.38a10,10 0 0,1 10,-10" />
          <path d="M56437.11,-91373.38a40,40 0 0,1 40,40" />
          <path d="M56437.11,-91343.38a10,10 0 0,1 10,10" />
          <path d="M56237.54,-91343.38l199.57,0" />
          <path d="M56237.54,-91373.38l199.57,0" />
          <path d="M56367.11,-90783.73l-59.57,0" />
          <path d="M56477.11,-90893.73a110,110 0 0,1 -110,110" />
          <path d="M56197.54,-90903.73l279.57,0" />
          <path d="M56307.54,-90783.73a110,110 0 0,1 -110,-110" />
          <path d="M56477.11,-91333.38l0,439.66" />
          <path d="M56447.11,-91333.38l0,429.66" />
          <path d="M56197.54,-90893.73l0,-439.66" />
          <path d="M56227.54,-90903.73l0,-429.66" />
          <path d="M55862.32,-88388.38l0,3270" />
          <path d="M55982.32,-88388.38l0,3270" />
          <path d="M55862.32,-89595.88l0,1207.5" />
          <path d="M56792.32,-88448.38l-810,0" />
          <path d="M56792.32,-88328.38l-810,0" />
          <path d="M56792.32,-88448.38l0,120" />
          <path d="M56762.32,-89595.88l0,1207.5" />
          <path d="M56822.32,-89595.88l0,1207.5" />
          <path d="M56762.32,-89595.88l60,0" />
          <path d="M56762.32,-88388.38l60,0" />
          <path d="M57692.32,-88448.38l-870,0" />
          <path d="M57692.32,-88328.38l-900,0" />
          <path d="M57692.32,-88448.38l0,120" />
          <path d="M57662.32,-89595.88l0,1207.5" />
          <path d="M57722.32,-89595.88l0,1207.5" />
          <path d="M57662.32,-89595.88l60,0" />
          <path d="M57662.32,-88388.38l60,0" />
          <path d="M59486.6,-88448.38l-894.27,0" />
          <path d="M59486.62,-88328.35l-894.3,-0.03" />
          <path d="M59486.6,-88448.38l0.03,120.03" />
          <path d="M58592.32,-88448.38l0,120" />
          <path d="M58562.32,-89595.88l0,1267.5" />
          <path d="M58622.32,-89595.88l0,1147.5" />
          <path d="M58562.32,-89595.88l60,0" />
          <path d="M58562.32,-91673.38l0,1200" />
          <path d="M58622.32,-91673.38l0,1200" />
          <path d="M58562.32,-90473.38l60,0" />
          <path d="M57662.32,-91673.38l0,1200" />
          <path d="M57722.32,-91673.38l0,1200" />
          <path d="M57662.32,-90473.38l60,0" />
          <path d="M56762.32,-91673.38l0,1200" />
          <path d="M56822.32,-91673.38l0,1200" />
          <path d="M56762.32,-90473.38l60,0" />
          <path d="M55862.32,-91673.38l0,1200" />
          <path d="M56512.11,-88788.38a40,40 0 0,1 -40,40" />
          <path d="M56482.11,-88788.38a10,10 0 0,1 -10,10" />
          <path d="M56272.54,-88748.38a40,40 0 0,1 -40,-40" />
          <path d="M56272.54,-88778.38a10,10 0 0,1 -10,-10" />
          <path d="M56472.11,-88778.38l-199.57,0" />
          <path d="M56472.11,-88748.38l-199.57,0" />
          <path d="M56342.54,-89338.04l59.57,0" />
          <path d="M56232.54,-89228.04a110,110 0 0,1 110,-110" />
          <path d="M56512.11,-89218.04l-279.57,0" />
          <path d="M56402.11,-89338.04a110,110 0 0,1 110,110" />
          <path d="M56232.54,-88788.38l0,-439.66" />
          <path d="M56262.54,-88788.38l0,-429.66" />
          <path d="M56512.11,-89228.04l0,439.66" />
          <path d="M56482.11,-89218.04l0,429.66" />
          <path d="M57412.11,-88788.38a40,40 0 0,1 -40,40" />
          <path d="M57382.11,-88788.38a10,10 0 0,1 -10,10" />
          <path d="M57172.54,-88748.38a40,40 0 0,1 -40,-40" />
          <path d="M57172.54,-88778.38a10,10 0 0,1 -10,-10" />
          <path d="M57372.11,-88778.38l-199.57,0" />
          <path d="M57372.11,-88748.38l-199.57,0" />
          <path d="M57242.54,-89338.04l59.57,0" />
          <path d="M57132.54,-89228.04a110,110 0 0,1 110,-110" />
          <path d="M57412.11,-89218.04l-279.57,0" />
          <path d="M57302.11,-89338.04a110,110 0 0,1 110,110" />
          <path d="M57132.54,-88788.38l0,-439.66" />
          <path d="M57162.54,-88788.38l0,-429.66" />
          <path d="M57412.11,-89228.04l0,439.66" />
          <path d="M57382.11,-89218.04l0,429.66" />
          <path d="M58312.11,-88788.38a40,40 0 0,1 -40,40" />
          <path d="M58282.11,-88788.38a10,10 0 0,1 -10,10" />
          <path d="M58072.54,-88748.38a40,40 0 0,1 -40,-40" />
          <path d="M58072.54,-88778.38a10,10 0 0,1 -10,-10" />
          <path d="M58272.11,-88778.38l-199.57,0" />
          <path d="M58272.11,-88748.38l-199.57,0" />
          <path d="M58142.54,-89338.04l59.57,0" />
          <path d="M58032.54,-89228.04a110,110 0 0,1 110,-110" />
          <path d="M58312.11,-89218.04l-279.57,0" />
          <path d="M58202.11,-89338.04a110,110 0 0,1 110,110" />
          <path d="M58032.54,-88788.38l0,-439.66" />
          <path d="M58062.54,-88788.38l0,-429.66" />
          <path d="M58312.11,-89228.04l0,439.66" />
          <path d="M58282.11,-89218.04l0,429.66" />
          <path d="M59212.11,-88788.38a40,40 0 0,1 -40,40" />
          <path d="M59182.11,-88788.38a10,10 0 0,1 -10,10" />
          <path d="M58972.54,-88748.38a40,40 0 0,1 -40,-40" />
          <path d="M58972.54,-88778.38a10,10 0 0,1 -10,-10" />
          <path d="M59172.11,-88778.38l-199.57,0" />
          <path d="M59172.11,-88748.38l-199.57,0" />
          <path d="M59042.54,-89338.04l59.57,0" />
          <path d="M58932.54,-89228.04a110,110 0 0,1 110,-110" />
          <path d="M59212.11,-89218.04l-279.57,0" />
          <path d="M59102.11,-89338.04a110,110 0 0,1 110,110" />
          <path d="M58932.54,-88788.38l0,-439.66" />
          <path d="M58962.54,-88788.38l0,-429.66" />
          <path d="M59212.11,-89228.04l0,439.66" />
          <path d="M59182.11,-89218.04l0,429.66" />
          <path d="M55982.32,-85518.38l0,400" />
          <path d="M56042.32,-85518.38l0,400" />
          <path d="M55982.32,-85518.38l2855,0" />
          <path d="M56042.32,-85268.38l3045,0" />
          <path d="M56042.32,-87928.38l0,-400" />
          <path d="M55982.32,-87928.38l0,-400" />
          <path d="M58837.32,-87928.38l-2855,0" />
          <path d="M59087.32,-88178.38l-3045,0" />
          <path d="M59087.32,-85768.38l0,-1910" />
          <path d="M59337.32,-85518.38l0,-2410" />
          <path d="M58837.32,-87928.38a250,250 0 0,1 250,250" />
          <path d="M59087.32,-85768.38a250,250 0 0,1 -250,250" />
          <path d="M59087.32,-88178.38a250,250 0 0,1 250,250" />
          <path d="M59337.32,-85518.38a250,250 0 0,1 -250,250" />
          <path d="M58562.32,-88448.38l-840,0" />
          <path d="M58592.32,-88328.38l-900,0" />
          <path d="M56042.32,-85418.5l150.11,150.11" />
          <path d="M56119.21,-85518.38l250,250" />
          <path d="M56295.99,-85518.38l250,250" />
          <path d="M56472.77,-85518.38l250,250" />
          <path d="M56649.55,-85518.38l250,250" />
          <path d="M56826.32,-85518.38l250,250" />
          <path d="M57003.1,-85518.38l250,250" />
          <path d="M57179.88,-85518.38l250,250" />
          <path d="M57356.65,-85518.38l250,250" />
          <path d="M57533.43,-85518.38l250,250" />
          <path d="M57710.21,-85518.38l250,250" />
          <path d="M57886.98,-85518.38l250,250" />
          <path d="M58063.76,-85518.38l250,250" />
          <path d="M58240.54,-85518.38l250,250" />
          <path d="M58417.31,-85518.38l250,250" />
          <path d="M56042.32,-88070.15l141.77,141.77" />
          <path d="M58594.09,-85518.38l250,250" />
          <path d="M56110.87,-88178.38l250,250" />
          <path d="M58770.87,-85518.38l250,250" />
          <path d="M56287.65,-88178.38l250,250" />
          <path d="M58929.88,-85536.15l250,250" />
          <path d="M56464.42,-88178.38l250,250" />
          <path d="M59031.67,-85611.13l250,250" />
          <path d="M56641.2,-88178.38l250,250" />
          <path d="M59085.03,-85734.55l250,250" />
          <path d="M56817.98,-88178.38l250,250" />
          <path d="M59087.32,-85909.03l250,250" />
          <path d="M56994.75,-88178.38l250,250" />
          <path d="M59087.32,-86085.81l250,250" />
          <path d="M57171.53,-88178.38l250,250" />
          <path d="M59087.32,-86262.59l250,250" />
          <path d="M57348.31,-88178.38l250,250" />
          <path d="M59087.32,-86439.36l250,250" />
          <path d="M57525.08,-88178.38l250,250" />
          <path d="M59087.32,-86616.14l250,250" />
          <path d="M57701.86,-88178.38l250,250" />
          <path d="M59087.32,-86792.92l250,250" />
          <path d="M57878.64,-88178.38l250,250" />
          <path d="M59087.32,-86969.69l250,250" />
          <path d="M58055.41,-88178.38l250,250" />
          <path d="M59087.32,-87146.47l250,250" />
          <path d="M58232.19,-88178.38l250,250" />
          <path d="M59087.32,-87323.25l250,250" />
          <path d="M58408.97,-88178.38l250,250" />
          <path d="M59087.32,-87500.02l250,250" />
          <path d="M58585.74,-88178.38l250,250" />
          <path d="M59087.32,-87676.8l250,250" />
          <path d="M58762.52,-88178.38l574.81,574.81" />
          <path d="M58939.3,-88178.38l398.03,398.03" />
          <path d="M59117.96,-88176.5l217.48,217.48" />
          <path d="M56056.24,-88178.38l-13.92,13.92" />
          <path d="M56233.02,-88178.38l-190.7,190.7" />
          <path d="M56409.8,-88178.38l-250,250" />
          <path d="M56586.57,-88178.38l-250,250" />
          <path d="M56763.35,-88178.38l-250,250" />
          <path d="M56940.13,-88178.38l-250,250" />
          <path d="M57116.9,-88178.38l-250,250" />
          <path d="M57293.68,-88178.38l-250,250" />
          <path d="M57470.46,-88178.38l-250,250" />
          <path d="M57647.23,-88178.38l-250,250" />
          <path d="M57824.01,-88178.38l-250,250" />
          <path d="M58000.79,-88178.38l-250,250" />
          <path d="M58177.56,-88178.38l-250,250" />
          <path d="M58354.34,-88178.38l-250,250" />
          <path d="M58531.12,-88178.38l-250,250" />
          <path d="M58707.89,-88178.38l-250,250" />
          <path d="M56047.9,-85518.38l-5.57,5.57" />
          <path d="M58884.67,-88178.38l-250,250" />
          <path d="M56224.67,-85518.38l-182.35,182.35" />
          <path d="M59061.45,-88178.38l-250,250" />
          <path d="M56401.45,-85518.38l-250,250" />
          <path d="M59207.46,-88147.62l-250,250" />
          <path d="M56578.23,-85518.38l-250,250" />
          <path d="M59298.62,-88062l-250,250" />
          <path d="M56755,-85518.38l-250,250" />
          <path d="M59337.32,-87923.93l-250,250" />
          <path d="M56931.78,-85518.38l-250,250" />
          <path d="M59337.32,-87747.15l-250,250" />
          <path d="M57108.56,-85518.38l-250,250" />
          <path d="M59337.32,-87570.38l-250,250" />
          <path d="M57285.33,-85518.38l-250,250" />
          <path d="M59337.32,-87393.6l-250,250" />
          <path d="M57462.11,-85518.38l-250,250" />
          <path d="M59337.32,-87216.82l-250,250" />
          <path d="M57638.89,-85518.38l-250,250" />
          <path d="M59337.32,-87040.05l-250,250" />
          <path d="M57815.66,-85518.38l-250,250" />
          <path d="M59337.32,-86863.27l-250,250" />
          <path d="M57992.44,-85518.38l-250,250" />
          <path d="M59337.32,-86686.49l-250,250" />
          <path d="M58169.22,-85518.38l-250,250" />
          <path d="M59337.32,-86509.72l-250,250" />
          <path d="M58345.99,-85518.38l-250,250" />
          <path d="M59337.32,-86332.94l-250,250" />
          <path d="M58522.77,-85518.38l-250,250" />
          <path d="M59337.32,-86156.16l-250,250" />
          <path d="M58699.55,-85518.38l-250,250" />
          <path d="M59337.32,-85979.39l-253.67,253.67" />
          <path d="M58879.99,-85522.05l-253.67,253.67" />
          <path d="M59337.32,-85802.61l-534.22,534.22" />
          <path d="M59337.32,-85625.83l-357.45,357.45" />
          <path d="M59322.87,-85434.6l-151.75,151.75" />
          <path d="M55982.32,-89595.88l3229.78,0" />
          <path d="M59212.11,-89595.88l275.22,0" />
          <path d="M55982.32,-90473.38l3505,0" />
        </g>
        <g id="layer-rm" class="rm">
          <path d="M59735.89,-85118.38l2848.75,0l0,-6555l-2848.75,0z" />
          <path d="M81629.32,-95053.38l2858,0l0,-5555l-2858,0z" />
          <path d="M71732.32,-85118.38l2840,0l0,-6555l-2840,0z" />
          <path d="M72695.32,-95053.38l2858,0l0,-5555l-2858,0z" />
          <path d="M65673.39,-85118.38l2848.75,0l0,-6555l-2848.75,0z" />
          <path d="M77652.32,-85118.38l2840,0l0,-6555l-2840,0z" />
          <path d="M43672.32,-85118.38l2750,0l0,-6555l-2750,0z" />
          <path d="M53802.32,-85118.38l2060,0l0,-6555l-2060,0z" />
        </g>
      </g>
      <g id="assets" fill="none">
        <g id="rm-assets" class="rm-asset">
          <path d="M53802.32,-95053.38l3080.9,0l0,-5555l-3081.1,0z" id="C02;06;610" />
          <path d="M84867.32,-83118.38l11685,0l0,-8555l-11685,0z" id="C02;06;619" />
          <path d="M84867.32,-95053.38l0,-8555l11685,0l0,4125l0,4430l-7060,0z" id="C02;06;618" />
          <path d="M19732.32,-85118.38l8760,0l0,-6555l-8760,0z" id="C02;06;602" />
          <path d="M28732.32,-85118.38l11755,0l0,-6555l-11755,0z" id="C02;06;601" />
          <path d="M8732.32,-95053.38l-5060,0l0,-4430l0,-4125l11685,0l0,8555l-6625,0z" id="C02;06;604" />
          <path d="M15737.32,-95053.38l4255,0l0,-5555l-4255,0z" id="C02;06;605" />
          <path d="M33737.32,-95053.38l6222.5,0l0,-5555l-6222.5,0z" id="C02;06;608" />
          <path d="M24737.32,-95053.38l8750,0l0,-5555l-8750,0l0,5555z" id="C02;06;607" />
          <path d="M8732.32,-91673.38l-5060,0l0,4430l0,4125l11685,0l0,-8555l-6625,0z" id="C02;06;603" />
          <path d="M20232.32,-95053.38l4255,0l0,-5555l-4255,0z" id="C02;06;606" />
          <path d="M46422.32,-95053.38l-6222.5,0l0,-5555l6222.5,0z" id="C02;06;609" />
          <path d="M78651.32,-95053.38l2858,0l0,-5555l-2858,0z" id="C02;06;617" />
          <path d="M75673.32,-95053.38l2858,0l0,-5555l-2858,0z" id="C02;06;616" />
          <path d="M69717.32,-95053.38l2858,0l0,-5555l-2858,0z" id="C02;06;615" />
          <path d="M66739.32,-95053.38l2858,0l0,-5555l-2858,0z" id="C02;06;614" />
          <path d="M57003.32,-95053.38l3080.9,0l0,-5555l-3081.1,0z" id="C02;06;611" />
          <path d="M60204.32,-95053.38l3080.9,0l0,-5555l-3081.1,0z" id="C02;06;612" />
          <path d="M63405.32,-95053.38l3080.9,0l0,-5555l-3081.1,0z" id="C02;06;613" />
          <path d="M62704.64,-85118.38l2848.75,0l0,-6555l-2848.75,0z" id="C02;06;622" />
          <path d="M68642.14,-85118.38l2848.75,0l0,-6555l-2848.75,0z" id="C02;06;621" />
          <path d="M74692.32,-85118.38l2840,0l0,-6555l-2840,0z" id="C02;06;620" />
        </g>
      </g>
    </g>
    <g id="asset-labels" font-family="Arial" font-weight="bold" font-size="1.5em" text-anchor="middle">
      <g id="rm-labels">
        <g id="l-rm-C02;06;610" transform="translate(55342.67,97827.45)">
          <text>610</text>
        </g>
        <g id="l-rm-C02;06;619" transform="translate(90709.82,87392.45)">
          <text>619</text>
        </g>
        <g id="l-rm-C02;06;618" transform="translate(90709.82,99327.45)">
          <text>618</text>
        </g>
        <g id="l-rm-C02;06;602" transform="translate(24112.32,88392.45)">
          <text>602</text>
        </g>
        <g id="l-rm-C02;06;601" transform="translate(34609.82,88392.45)">
          <text>601</text>
        </g>
        <g id="l-rm-C02;06;604" transform="translate(9514.82,99327.45)">
          <text>604</text>
        </g>
        <g id="l-rm-C02;06;605" transform="translate(17864.82,97827.45)">
          <text>605</text>
        </g>
        <g id="l-rm-C02;06;608" transform="translate(36848.57,97827.45)">
          <text>608</text>
        </g>
        <g id="l-rm-C02;06;607" transform="translate(29112.32,97827.45)">
          <text>607</text>
        </g>
        <g id="l-rm-C02;06;603" transform="translate(9514.82,87392.45)">
          <text>603</text>
        </g>
        <g id="l-rm-C02;06;606" transform="translate(22359.82,97827.45)">
          <text>606</text>
        </g>
        <g id="l-rm-C02;06;609" transform="translate(43311.07,97827.45)">
          <text>609</text>
        </g>
        <g id="l-rm-C02;06;617" transform="translate(80080.32,97827.45)">
          <text>617</text>
        </g>
        <g id="l-rm-C02;06;616" transform="translate(77102.32,97827.45)">
          <text>616</text>
        </g>
        <g id="l-rm-C02;06;615" transform="translate(71146.32,97827.45)">
          <text>615</text>
        </g>
        <g id="l-rm-C02;06;614" transform="translate(68168.32,97827.45)">
          <text>614</text>
        </g>
        <g id="l-rm-C02;06;611" transform="translate(58543.67,97827.45)">
          <text>611</text>
        </g>
        <g id="l-rm-C02;06;612" transform="translate(61744.67,97827.45)">
          <text>612</text>
        </g>
        <g id="l-rm-C02;06;613" transform="translate(64945.67,97827.45)">
          <text>613</text>
        </g>
        <g id="l-rm-C02;06;622" transform="translate(64129.02,88392.45)">
          <text>622</text>
        </g>
        <g id="l-rm-C02;06;621" transform="translate(70066.52,88392.45)">
          <text>621</text>
        </g>
        <g id="l-rm-C02;06;620" transform="translate(76112.32,88392.45)">
          <text>620</text>
        </g>
      </g>
    </g>
  </g>
</svg>